<svg width="16" height="16" viewBox="0 0 18 18" fill="none" xmlns="http://www.w3.org/2000/svg">
<path d="M9.95121 2.75161C10.1762 2.52665 10.4814 2.40027 10.7996 2.40027C11.1178 2.40027 11.423 2.52665 11.648 2.75161L17.048 8.15161C17.273 8.37665 17.3994 8.68181 17.3994 9.00001C17.3994 9.31821 17.273 9.62338 17.048 9.84841L11.648 15.2484C11.4217 15.467 11.1186 15.588 10.8039 15.5852C10.4893 15.5825 10.1883 15.4563 9.96583 15.2338C9.74334 15.0113 9.61714 14.7103 9.6144 14.3957C9.61167 14.0811 9.73262 13.7779 9.95121 13.5516L13.1996 10.2H1.79961C1.48135 10.2 1.17612 10.0736 0.951081 9.84854C0.726038 9.6235 0.599609 9.31827 0.599609 9.00001C0.599609 8.68175 0.726038 8.37653 0.951081 8.15148C1.17612 7.92644 1.48135 7.80001 1.79961 7.80001H13.1996L9.95121 4.44841C9.72624 4.22338 9.59987 3.91821 9.59987 3.60001C9.59987 3.28182 9.72624 2.97665 9.95121 2.75161Z" fill="#D0CFE0"/>
</svg>
