<svg width="40" height="40" viewBox="0 0 40 40" fill="none" xmlns="http://www.w3.org/2000/svg">
<path d="M17.8857 33.8854C17.3856 34.3853 16.7074 34.6661 16.0003 34.6661C15.2932 34.6661 14.6151 34.3853 14.115 33.8854L2.11499 21.8854C1.61507 21.3853 1.33423 20.7071 1.33423 20C1.33423 19.2929 1.61507 18.6148 2.11499 18.1147L14.115 6.11471C14.6179 5.62895 15.2915 5.36017 15.9907 5.36624C16.6899 5.37232 17.3588 5.65277 17.8532 6.14719C18.3476 6.64161 18.628 7.31045 18.6341 8.00964C18.6402 8.70883 18.3714 9.38243 17.8857 9.88537L10.667 17.3334L36.0003 17.3334C36.7076 17.3334 37.3858 17.6143 37.8859 18.1144C38.386 18.6145 38.667 19.2928 38.667 20C38.667 20.7073 38.386 21.3856 37.8859 21.8857C37.3858 22.3858 36.7076 22.6667 36.0003 22.6667L10.667 22.6667L17.8857 30.1147C18.3856 30.6148 18.6664 31.2929 18.6664 32C18.6664 32.7071 18.3856 33.3853 17.8857 33.8854Z" fill="#F4F3F9"/>
</svg>
