<svg width="221" height="35" viewBox="0 0 221 35" fill="none" xmlns="http://www.w3.org/2000/svg">
<path d="M14.584 14.48C15.8853 14.7573 16.9307 15.408 17.72 16.432C18.5093 17.4347 18.904 18.5867 18.904 19.888C18.904 21.7653 18.2427 23.2587 16.92 24.368C15.6187 25.456 13.7947 26 11.448 26H0.984V3.536H11.096C13.3787 3.536 15.16 4.05867 16.44 5.104C17.7413 6.14933 18.392 7.568 18.392 9.36C18.392 10.6827 18.04 11.7813 17.336 12.656C16.6533 13.5307 15.736 14.1387 14.584 14.48ZM6.456 12.624H10.04C10.936 12.624 11.6187 12.432 12.088 12.048C12.5787 11.6427 12.824 11.056 12.824 10.288C12.824 9.52 12.5787 8.93333 12.088 8.528C11.6187 8.12267 10.936 7.92 10.04 7.92H6.456V12.624ZM10.488 21.584C11.4053 21.584 12.1093 21.3813 12.6 20.976C13.112 20.5493 13.368 19.9413 13.368 19.152C13.368 18.3627 13.1013 17.744 12.568 17.296C12.056 16.848 11.3413 16.624 10.424 16.624H6.456V21.584H10.488ZM38.9097 16.784C38.9097 17.296 38.8778 17.8293 38.8138 18.384H26.4298C26.5151 19.4933 26.8671 20.3467 27.4858 20.944C28.1258 21.52 28.9044 21.808 29.8218 21.808C31.1871 21.808 32.1364 21.232 32.6698 20.08H38.4938C38.1951 21.2533 37.6511 22.3093 36.8618 23.248C36.0938 24.1867 35.1231 24.9227 33.9498 25.456C32.7764 25.9893 31.4644 26.256 30.0138 26.256C28.2644 26.256 26.7071 25.8827 25.3418 25.136C23.9764 24.3893 22.9098 23.3227 22.1418 21.936C21.3738 20.5493 20.9898 18.928 20.9898 17.072C20.9898 15.216 21.3631 13.5947 22.1098 12.208C22.8778 10.8213 23.9444 9.75467 25.3098 9.008C26.6751 8.26133 28.2431 7.888 30.0138 7.888C31.7418 7.888 33.2778 8.25067 34.6218 8.976C35.9658 9.70133 37.0111 10.736 37.7578 12.08C38.5258 13.424 38.9097 14.992 38.9097 16.784ZM33.3098 15.344C33.3098 14.4053 32.9898 13.6587 32.3498 13.104C31.7098 12.5493 30.9098 12.272 29.9498 12.272C29.0324 12.272 28.2538 12.5387 27.6138 13.072C26.9951 13.6053 26.6111 14.3627 26.4618 15.344H33.3098ZM48.5805 7.888C49.8392 7.888 50.9378 8.144 51.8765 8.656C52.8365 9.168 53.5725 9.84 54.0845 10.672V8.144H59.5565V25.968C59.5565 27.6107 59.2258 29.0933 58.5645 30.416C57.9245 31.76 56.9325 32.8267 55.5885 33.616C54.2658 34.4053 52.6125 34.8 50.6285 34.8C47.9832 34.8 45.8392 34.1707 44.1965 32.912C42.5538 31.6747 41.6152 29.9893 41.3805 27.856H46.7885C46.9592 28.5387 47.3645 29.072 48.0045 29.456C48.6445 29.8613 49.4338 30.064 50.3725 30.064C51.5032 30.064 52.3992 29.7333 53.0605 29.072C53.7432 28.432 54.0845 27.3973 54.0845 25.968V23.44C53.5512 24.272 52.8152 24.9547 51.8765 25.488C50.9378 26 49.8392 26.256 48.5805 26.256C47.1085 26.256 45.7752 25.8827 44.5805 25.136C43.3858 24.368 42.4365 23.2907 41.7325 21.904C41.0498 20.496 40.7085 18.8747 40.7085 17.04C40.7085 15.2053 41.0498 13.5947 41.7325 12.208C42.4365 10.8213 43.3858 9.75467 44.5805 9.008C45.7752 8.26133 47.1085 7.888 48.5805 7.888ZM54.0845 17.072C54.0845 15.7067 53.7005 14.6293 52.9325 13.84C52.1858 13.0507 51.2685 12.656 50.1805 12.656C49.0925 12.656 48.1645 13.0507 47.3965 13.84C46.6498 14.608 46.2765 15.6747 46.2765 17.04C46.2765 18.4053 46.6498 19.4933 47.3965 20.304C48.1645 21.0933 49.0925 21.488 50.1805 21.488C51.2685 21.488 52.1858 21.0933 52.9325 20.304C53.7005 19.5147 54.0845 18.4373 54.0845 17.072ZM66.2673 6.288C65.3073 6.288 64.5179 6.01067 63.8993 5.456C63.3019 4.88 63.0033 4.176 63.0033 3.344C63.0033 2.49067 63.3019 1.78667 63.8993 1.232C64.5179 0.655998 65.3073 0.367998 66.2673 0.367998C67.2059 0.367998 67.9739 0.655998 68.5713 1.232C69.1899 1.78667 69.4993 2.49067 69.4993 3.344C69.4993 4.176 69.1899 4.88 68.5713 5.456C67.9739 6.01067 67.2059 6.288 66.2673 6.288ZM68.9873 8.144V26H63.5153V8.144H68.9873ZM83.8328 7.952C85.9234 7.952 87.5874 8.63467 88.8248 10C90.0834 11.344 90.7128 13.2 90.7128 15.568V26H85.2728V16.304C85.2728 15.1093 84.9634 14.1813 84.3448 13.52C83.7261 12.8587 82.8941 12.528 81.8488 12.528C80.8034 12.528 79.9714 12.8587 79.3528 13.52C78.7341 14.1813 78.4248 15.1093 78.4248 16.304V26H72.9528V8.144H78.4248V10.512C78.9794 9.72267 79.7261 9.104 80.6648 8.656C81.6034 8.18667 82.6594 7.952 83.8328 7.952ZM105.395 7.952C107.486 7.952 109.15 8.63467 110.387 10C111.646 11.344 112.275 13.2 112.275 15.568V26H106.835V16.304C106.835 15.1093 106.526 14.1813 105.907 13.52C105.289 12.8587 104.457 12.528 103.411 12.528C102.366 12.528 101.534 12.8587 100.915 13.52C100.297 14.1813 99.9873 15.1093 99.9873 16.304V26H94.5153V8.144H99.9873V10.512C100.542 9.72267 101.289 9.104 102.227 8.656C103.166 8.18667 104.222 7.952 105.395 7.952ZM132.91 16.784C132.91 17.296 132.878 17.8293 132.814 18.384H120.43C120.515 19.4933 120.867 20.3467 121.486 20.944C122.126 21.52 122.904 21.808 123.822 21.808C125.187 21.808 126.136 21.232 126.67 20.08H132.494C132.195 21.2533 131.651 22.3093 130.862 23.248C130.094 24.1867 129.123 24.9227 127.95 25.456C126.776 25.9893 125.464 26.256 124.014 26.256C122.264 26.256 120.707 25.8827 119.342 25.136C117.976 24.3893 116.91 23.3227 116.142 21.936C115.374 20.5493 114.99 18.928 114.99 17.072C114.99 15.216 115.363 13.5947 116.11 12.208C116.878 10.8213 117.944 9.75467 119.31 9.008C120.675 8.26133 122.243 7.888 124.014 7.888C125.742 7.888 127.278 8.25067 128.622 8.976C129.966 9.70133 131.011 10.736 131.758 12.08C132.526 13.424 132.91 14.992 132.91 16.784ZM127.31 15.344C127.31 14.4053 126.99 13.6587 126.35 13.104C125.71 12.5493 124.91 12.272 123.95 12.272C123.032 12.272 122.254 12.5387 121.614 13.072C120.995 13.6053 120.611 14.3627 120.462 15.344H127.31ZM141.269 11.12C141.909 10.1387 142.709 9.37067 143.669 8.816C144.629 8.24 145.695 7.952 146.869 7.952V13.744H145.365C143.999 13.744 142.975 14.0427 142.293 14.64C141.61 15.216 141.269 16.24 141.269 17.712V26H135.797V8.144H141.269V11.12ZM166.86 10.16C166.241 8.85867 165.345 7.856 164.172 7.152C162.999 6.42667 161.633 6.064 160.076 6.064C158.519 6.064 157.111 6.42667 155.852 7.152C154.615 7.856 153.633 8.88 152.908 10.224C152.204 11.5467 151.852 13.0827 151.852 14.832C151.852 16.5813 152.204 18.1173 152.908 19.44C153.633 20.7627 154.615 21.7867 155.852 22.512C157.111 23.216 158.519 23.568 160.076 23.568C162.252 23.568 164.044 22.9173 165.452 21.616C166.86 20.3147 167.681 18.5547 167.916 16.336H159.02V13.968H171.02V16.208C170.849 18.0427 170.273 19.728 169.292 21.264C168.311 22.7787 167.02 23.984 165.42 24.88C163.82 25.7547 162.039 26.192 160.076 26.192C158.007 26.192 156.119 25.712 154.412 24.752C152.705 23.7707 151.351 22.416 150.348 20.688C149.367 18.96 148.876 17.008 148.876 14.832C148.876 12.656 149.367 10.704 150.348 8.976C151.351 7.22667 152.705 5.872 154.412 4.912C156.119 3.93067 158.007 3.44 160.076 3.44C162.444 3.44 164.535 4.02667 166.348 5.2C168.183 6.37333 169.516 8.02667 170.348 10.16H166.86ZM173.782 17.168C173.782 15.376 174.145 13.808 174.87 12.464C175.596 11.0987 176.588 10.0427 177.846 9.296C179.126 8.54933 180.545 8.176 182.102 8.176C183.638 8.176 184.972 8.50667 186.102 9.168C187.233 9.82933 188.076 10.6613 188.63 11.664V8.464H191.574V26H188.63V22.736C188.054 23.76 187.19 24.6133 186.038 25.296C184.908 25.9573 183.585 26.288 182.07 26.288C180.513 26.288 179.105 25.904 177.846 25.136C176.588 24.368 175.596 23.2907 174.87 21.904C174.145 20.5173 173.782 18.9387 173.782 17.168ZM188.63 17.2C188.63 15.8773 188.364 14.7253 187.83 13.744C187.297 12.7627 186.572 12.016 185.654 11.504C184.758 10.9707 183.766 10.704 182.678 10.704C181.59 10.704 180.598 10.96 179.702 11.472C178.806 11.984 178.092 12.7307 177.558 13.712C177.025 14.6933 176.758 15.8453 176.758 17.168C176.758 18.512 177.025 19.6853 177.558 20.688C178.092 21.6693 178.806 22.4267 179.702 22.96C180.598 23.472 181.59 23.728 182.678 23.728C183.766 23.728 184.758 23.472 185.654 22.96C186.572 22.4267 187.297 21.6693 187.83 20.688C188.364 19.6853 188.63 18.5227 188.63 17.2ZM197.999 5.616C197.445 5.616 196.975 5.424 196.591 5.04C196.207 4.656 196.015 4.18667 196.015 3.632C196.015 3.07733 196.207 2.608 196.591 2.224C196.975 1.84 197.445 1.648 197.999 1.648C198.533 1.648 198.981 1.84 199.343 2.224C199.727 2.608 199.919 3.07733 199.919 3.632C199.919 4.18667 199.727 4.656 199.343 5.04C198.981 5.424 198.533 5.616 197.999 5.616ZM199.407 8.464V26H196.495V8.464H199.407ZM212.914 8.144C215.048 8.144 216.776 8.79467 218.098 10.096C219.421 11.376 220.082 13.232 220.082 15.664V26H217.202V16.08C217.202 14.3307 216.765 12.9973 215.89 12.08C215.016 11.1413 213.821 10.672 212.306 10.672C210.77 10.672 209.544 11.152 208.626 12.112C207.73 13.072 207.282 14.4693 207.282 16.304V26H204.37V8.464H207.282V10.96C207.858 10.064 208.637 9.37067 209.618 8.88C210.621 8.38933 211.72 8.144 212.914 8.144Z" fill="black"/>
</svg>
