<svg width="current" height="current" viewBox="0 0 708 342" fill="none" xmlns="http://www.w3.org/2000/svg">
<path d="M73.05 116C79.15 117.3 84.05 120.35 87.75 125.15C91.45 129.85 93.3 135.25 93.3 141.35C93.3 150.15 90.2 157.15 84 162.35C77.9 167.45 69.35 170 58.35 170H9.3V64.7H56.7C67.4 64.7 75.75 67.15 81.75 72.05C87.85 76.95 90.9 83.6 90.9 92C90.9 98.2 89.25 103.35 85.95 107.45C82.75 111.55 78.45 114.4 73.05 116ZM34.95 107.3H51.75C55.95 107.3 59.15 106.4 61.35 104.6C63.65 102.7 64.8 99.95 64.8 96.35C64.8 92.75 63.65 90 61.35 88.1C59.15 86.2 55.95 85.25 51.75 85.25H34.95V107.3ZM53.85 149.3C58.15 149.3 61.45 148.35 63.75 146.45C66.15 144.45 67.35 141.6 67.35 137.9C67.35 134.2 66.1 131.3 63.6 129.2C61.2 127.1 57.85 126.05 53.55 126.05H34.95V149.3H53.85ZM187.077 126.8C187.077 129.2 186.927 131.7 186.627 134.3H128.577C128.977 139.5 130.627 143.5 133.527 146.3C136.527 149 140.177 150.35 144.477 150.35C150.877 150.35 155.327 147.65 157.827 142.25H185.127C183.727 147.75 181.177 152.7 177.477 157.1C173.877 161.5 169.327 164.95 163.827 167.45C158.327 169.95 152.177 171.2 145.377 171.2C137.177 171.2 129.877 169.45 123.477 165.95C117.077 162.45 112.077 157.45 108.477 150.95C104.877 144.45 103.077 136.85 103.077 128.15C103.077 119.45 104.827 111.85 108.327 105.35C111.927 98.85 116.927 93.85 123.327 90.35C129.727 86.85 137.077 85.1 145.377 85.1C153.477 85.1 160.677 86.8 166.977 90.2C173.277 93.6 178.177 98.45 181.677 104.75C185.277 111.05 187.077 118.4 187.077 126.8ZM160.827 120.05C160.827 115.65 159.327 112.15 156.327 109.55C153.327 106.95 149.577 105.65 145.077 105.65C140.777 105.65 137.127 106.9 134.127 109.4C131.227 111.9 129.427 115.45 128.727 120.05H160.827ZM232.409 85.1C238.309 85.1 243.459 86.3 247.859 88.7C252.359 91.1 255.809 94.25 258.209 98.15V86.3H283.859V169.85C283.859 177.55 282.309 184.5 279.209 190.7C276.209 197 271.559 202 265.259 205.7C259.059 209.4 251.309 211.25 242.009 211.25C229.609 211.25 219.559 208.3 211.859 202.4C204.159 196.6 199.759 188.7 198.659 178.7H224.009C224.809 181.9 226.709 184.4 229.709 186.2C232.709 188.1 236.409 189.05 240.809 189.05C246.109 189.05 250.309 187.5 253.409 184.4C256.609 181.4 258.209 176.55 258.209 169.85V158C255.709 161.9 252.259 165.1 247.859 167.6C243.459 170 238.309 171.2 232.409 171.2C225.509 171.2 219.259 169.45 213.659 165.95C208.059 162.35 203.609 157.3 200.309 150.8C197.109 144.2 195.509 136.6 195.509 128C195.509 119.4 197.109 111.85 200.309 105.35C203.609 98.85 208.059 93.85 213.659 90.35C219.259 86.85 225.509 85.1 232.409 85.1ZM258.209 128.15C258.209 121.75 256.409 116.7 252.809 113C249.309 109.3 245.009 107.45 239.909 107.45C234.809 107.45 230.459 109.3 226.859 113C223.359 116.6 221.609 121.6 221.609 128C221.609 134.4 223.359 139.5 226.859 143.3C230.459 147 234.809 148.85 239.909 148.85C245.009 148.85 249.309 147 252.809 143.3C256.409 139.6 258.209 134.55 258.209 128.15ZM315.315 77.6C310.815 77.6 307.115 76.3 304.215 73.7C301.415 71 300.015 67.7 300.015 63.8C300.015 59.8 301.415 56.5 304.215 53.9C307.115 51.2 310.815 49.85 315.315 49.85C319.715 49.85 323.315 51.2 326.115 53.9C329.015 56.5 330.465 59.8 330.465 63.8C330.465 67.7 329.015 71 326.115 73.7C323.315 76.3 319.715 77.6 315.315 77.6ZM328.065 86.3V170H302.415V86.3H328.065ZM397.654 85.4C407.454 85.4 415.254 88.6 421.054 95C426.954 101.3 429.904 110 429.904 121.1V170H404.404V124.55C404.404 118.95 402.954 114.6 400.054 111.5C397.154 108.4 393.254 106.85 388.354 106.85C383.454 106.85 379.554 108.4 376.654 111.5C373.754 114.6 372.304 118.95 372.304 124.55V170H346.654V86.3H372.304V97.4C374.904 93.7 378.404 90.8 382.804 88.7C387.204 86.5 392.154 85.4 397.654 85.4ZM498.728 85.4C508.528 85.4 516.328 88.6 522.128 95C528.028 101.3 530.978 110 530.978 121.1V170H505.478V124.55C505.478 118.95 504.028 114.6 501.128 111.5C498.228 108.4 494.328 106.85 489.428 106.85C484.528 106.85 480.628 108.4 477.728 111.5C474.828 114.6 473.378 118.95 473.378 124.55V170H447.728V86.3H473.378V97.4C475.978 93.7 479.478 90.8 483.878 88.7C488.278 86.5 493.228 85.4 498.728 85.4ZM627.702 126.8C627.702 129.2 627.552 131.7 627.252 134.3H569.202C569.602 139.5 571.252 143.5 574.152 146.3C577.152 149 580.802 150.35 585.102 150.35C591.502 150.35 595.952 147.65 598.452 142.25H625.752C624.352 147.75 621.802 152.7 618.102 157.1C614.502 161.5 609.952 164.95 604.452 167.45C598.952 169.95 592.802 171.2 586.002 171.2C577.802 171.2 570.502 169.45 564.102 165.95C557.702 162.45 552.702 157.45 549.102 150.95C545.502 144.45 543.702 136.85 543.702 128.15C543.702 119.45 545.452 111.85 548.952 105.35C552.552 98.85 557.552 93.85 563.952 90.35C570.352 86.85 577.702 85.1 586.002 85.1C594.102 85.1 601.302 86.8 607.602 90.2C613.902 93.6 618.802 98.45 622.302 104.75C625.902 111.05 627.702 118.4 627.702 126.8ZM601.452 120.05C601.452 115.65 599.952 112.15 596.952 109.55C593.952 106.95 590.202 105.65 585.702 105.65C581.402 105.65 577.752 106.9 574.752 109.4C571.852 111.9 570.052 115.45 569.352 120.05H601.452ZM666.884 100.25C669.884 95.65 673.634 92.05 678.134 89.45C682.634 86.75 687.634 85.4 693.134 85.4V112.55H686.084C679.684 112.55 674.884 113.95 671.684 116.75C668.484 119.45 666.884 124.25 666.884 131.15V170H641.234V86.3H666.884V100.25ZM103.35 265.75C100.15 256.95 94.65 249.85 86.85 244.45C79.15 238.95 70 236.2 59.4 236.2C50.6 236.2 42.6 238.3 35.4 242.5C28.2 246.6 22.5 252.55 18.3 260.35C14.2 268.05 12.15 277.05 12.15 287.35C12.15 297.65 14.2 306.7 18.3 314.5C22.5 322.2 28.2 328.15 35.4 332.35C42.6 336.45 50.6 338.5 59.4 338.5C68 338.5 75.85 336.5 82.95 332.5C90.15 328.5 95.9 322.75 100.2 315.25C104.5 307.65 106.75 298.85 106.95 288.85H57.15V286.15H109.8V287.35C109.8 297.75 107.65 307.05 103.35 315.25C99.05 323.45 93.05 329.85 85.35 334.45C77.75 338.95 69.1 341.2 59.4 341.2C49.7 341.2 41 338.95 33.3 334.45C25.7 329.85 19.75 323.45 15.45 315.25C11.15 307.05 9 297.75 9 287.35C9 276.95 11.15 267.65 15.45 259.45C19.75 251.25 25.7 244.9 33.3 240.4C41 235.8 49.7 233.5 59.4 233.5C70.8 233.5 80.55 236.4 88.65 242.2C96.75 248 102.65 255.85 106.35 265.75H103.35ZM127.799 299.5C127.799 291 129.449 283.65 132.749 277.45C136.049 271.15 140.699 266.35 146.699 263.05C152.699 259.65 159.549 257.95 167.249 257.95C176.549 257.95 184.399 260.4 190.799 265.3C197.299 270.1 201.649 276.25 203.849 283.75V259H206.699V340H203.849V315.25C201.649 322.75 197.299 328.95 190.799 333.85C184.399 338.65 176.549 341.05 167.249 341.05C159.549 341.05 152.699 339.4 146.699 336.1C140.699 332.7 136.049 327.9 132.749 321.7C129.449 315.4 127.799 308 127.799 299.5ZM203.849 299.5C203.849 291.8 202.249 285.05 199.049 279.25C195.949 273.35 191.599 268.8 185.999 265.6C180.499 262.3 174.249 260.65 167.249 260.65C159.849 260.65 153.399 262.2 147.899 265.3C142.499 268.4 138.299 272.9 135.299 278.8C132.299 284.6 130.799 291.5 130.799 299.5C130.799 307.5 132.299 314.45 135.299 320.35C138.299 326.15 142.499 330.6 147.899 333.7C153.399 336.8 159.849 338.35 167.249 338.35C174.249 338.35 180.499 336.75 185.999 333.55C191.599 330.25 195.949 325.7 199.049 319.9C202.249 314 203.849 307.2 203.849 299.5ZM233.684 238.3C232.584 238.3 231.634 237.95 230.834 237.25C230.134 236.45 229.784 235.45 229.784 234.25C229.784 233.05 230.134 232.1 230.834 231.4C231.634 230.6 232.584 230.2 233.684 230.2C234.784 230.2 235.684 230.6 236.384 231.4C237.184 232.1 237.584 233.05 237.584 234.25C237.584 235.45 237.184 236.45 236.384 237.25C235.684 237.95 234.784 238.3 233.684 238.3ZM235.184 259V340H232.184V259H235.184ZM295.548 257.2C305.048 257.2 312.848 260.15 318.948 266.05C325.048 271.95 328.098 280.85 328.098 292.75V340H325.248V292.45C325.248 281.85 322.598 273.8 317.298 268.3C311.998 262.7 304.748 259.9 295.548 259.9C285.948 259.9 278.248 263.05 272.448 269.35C266.648 275.55 263.748 284.75 263.748 296.95V340H260.748V259H263.748V280.3C265.648 272.8 269.448 267.1 275.148 263.2C280.848 259.2 287.648 257.2 295.548 257.2Z" fill="black"/>
<path d="M8 31.0016C49.2843 -4.54457 73.4454 -5.21994 118.511 31.0016" stroke="black" stroke-width="8"/>
<path d="M135.489 43.8758L97.5751 41.874L120.977 8.75004L135.489 43.8758Z" fill="black"/>
</svg>
