<svg width="224" height="54" viewBox="0 0 224 54" fill="none" xmlns="http://www.w3.org/2000/svg">
<path d="M15.584 29.48C16.8853 29.7573 17.9307 30.408 18.72 31.432C19.5093 32.4347 19.904 33.5867 19.904 34.888C19.904 36.7653 19.2427 38.2587 17.92 39.368C16.6187 40.456 14.7947 41 12.448 41H1.984V18.536H12.096C14.3787 18.536 16.16 19.0587 17.44 20.104C18.7413 21.1493 19.392 22.568 19.392 24.36C19.392 25.6827 19.04 26.7813 18.336 27.656C17.6533 28.5307 16.736 29.1387 15.584 29.48ZM7.456 27.624H11.04C11.936 27.624 12.6187 27.432 13.088 27.048C13.5787 26.6427 13.824 26.056 13.824 25.288C13.824 24.52 13.5787 23.9333 13.088 23.528C12.6187 23.1227 11.936 22.92 11.04 22.92H7.456V27.624ZM11.488 36.584C12.4053 36.584 13.1093 36.3813 13.6 35.976C14.112 35.5493 14.368 34.9413 14.368 34.152C14.368 33.3627 14.1013 32.744 13.568 32.296C13.056 31.848 12.3413 31.624 11.424 31.624H7.456V36.584H11.488ZM39.9097 31.784C39.9097 32.296 39.8778 32.8293 39.8138 33.384H27.4298C27.5151 34.4933 27.8671 35.3467 28.4858 35.944C29.1258 36.52 29.9044 36.808 30.8218 36.808C32.1871 36.808 33.1364 36.232 33.6698 35.08H39.4938C39.1951 36.2533 38.6511 37.3093 37.8618 38.248C37.0938 39.1867 36.1231 39.9227 34.9498 40.456C33.7764 40.9893 32.4644 41.256 31.0138 41.256C29.2644 41.256 27.7071 40.8827 26.3418 40.136C24.9764 39.3893 23.9098 38.3227 23.1418 36.936C22.3738 35.5493 21.9898 33.928 21.9898 32.072C21.9898 30.216 22.3631 28.5947 23.1098 27.208C23.8778 25.8213 24.9444 24.7547 26.3098 24.008C27.6751 23.2613 29.2431 22.888 31.0138 22.888C32.7418 22.888 34.2778 23.2507 35.6218 23.976C36.9658 24.7013 38.0111 25.736 38.7578 27.08C39.5258 28.424 39.9097 29.992 39.9097 31.784ZM34.3098 30.344C34.3098 29.4053 33.9898 28.6587 33.3498 28.104C32.7098 27.5493 31.9098 27.272 30.9498 27.272C30.0324 27.272 29.2538 27.5387 28.6138 28.072C27.9951 28.6053 27.6111 29.3627 27.4618 30.344H34.3098ZM49.5805 22.888C50.8392 22.888 51.9378 23.144 52.8765 23.656C53.8365 24.168 54.5725 24.84 55.0845 25.672V23.144H60.5565V40.968C60.5565 42.6107 60.2258 44.0933 59.5645 45.416C58.9245 46.76 57.9325 47.8267 56.5885 48.616C55.2658 49.4053 53.6125 49.8 51.6285 49.8C48.9832 49.8 46.8392 49.1707 45.1965 47.912C43.5538 46.6747 42.6152 44.9893 42.3805 42.856H47.7885C47.9592 43.5387 48.3645 44.072 49.0045 44.456C49.6445 44.8613 50.4338 45.064 51.3725 45.064C52.5032 45.064 53.3992 44.7333 54.0605 44.072C54.7432 43.432 55.0845 42.3973 55.0845 40.968V38.44C54.5512 39.272 53.8152 39.9547 52.8765 40.488C51.9378 41 50.8392 41.256 49.5805 41.256C48.1085 41.256 46.7752 40.8827 45.5805 40.136C44.3858 39.368 43.4365 38.2907 42.7325 36.904C42.0498 35.496 41.7085 33.8747 41.7085 32.04C41.7085 30.2053 42.0498 28.5947 42.7325 27.208C43.4365 25.8213 44.3858 24.7547 45.5805 24.008C46.7752 23.2613 48.1085 22.888 49.5805 22.888ZM55.0845 32.072C55.0845 30.7067 54.7005 29.6293 53.9325 28.84C53.1858 28.0507 52.2685 27.656 51.1805 27.656C50.0925 27.656 49.1645 28.0507 48.3965 28.84C47.6498 29.608 47.2765 30.6747 47.2765 32.04C47.2765 33.4053 47.6498 34.4933 48.3965 35.304C49.1645 36.0933 50.0925 36.488 51.1805 36.488C52.2685 36.488 53.1858 36.0933 53.9325 35.304C54.7005 34.5147 55.0845 33.4373 55.0845 32.072ZM67.2673 21.288C66.3073 21.288 65.5179 21.0107 64.8993 20.456C64.3019 19.88 64.0033 19.176 64.0033 18.344C64.0033 17.4907 64.3019 16.7867 64.8993 16.232C65.5179 15.656 66.3073 15.368 67.2673 15.368C68.2059 15.368 68.9739 15.656 69.5713 16.232C70.1899 16.7867 70.4993 17.4907 70.4993 18.344C70.4993 19.176 70.1899 19.88 69.5713 20.456C68.9739 21.0107 68.2059 21.288 67.2673 21.288ZM69.9873 23.144V41H64.5153V23.144H69.9873ZM84.8328 22.952C86.9234 22.952 88.5874 23.6347 89.8248 25C91.0834 26.344 91.7128 28.2 91.7128 30.568V41H86.2728V31.304C86.2728 30.1093 85.9634 29.1813 85.3448 28.52C84.7261 27.8587 83.8941 27.528 82.8488 27.528C81.8034 27.528 80.9714 27.8587 80.3528 28.52C79.7341 29.1813 79.4248 30.1093 79.4248 31.304V41H73.9528V23.144H79.4248V25.512C79.9794 24.7227 80.7261 24.104 81.6648 23.656C82.6034 23.1867 83.6594 22.952 84.8328 22.952ZM106.395 22.952C108.486 22.952 110.15 23.6347 111.387 25C112.646 26.344 113.275 28.2 113.275 30.568V41H107.835V31.304C107.835 30.1093 107.526 29.1813 106.907 28.52C106.289 27.8587 105.457 27.528 104.411 27.528C103.366 27.528 102.534 27.8587 101.915 28.52C101.297 29.1813 100.987 30.1093 100.987 31.304V41H95.5153V23.144H100.987V25.512C101.542 24.7227 102.289 24.104 103.227 23.656C104.166 23.1867 105.222 22.952 106.395 22.952ZM133.91 31.784C133.91 32.296 133.878 32.8293 133.814 33.384H121.43C121.515 34.4933 121.867 35.3467 122.486 35.944C123.126 36.52 123.904 36.808 124.822 36.808C126.187 36.808 127.136 36.232 127.67 35.08H133.494C133.195 36.2533 132.651 37.3093 131.862 38.248C131.094 39.1867 130.123 39.9227 128.95 40.456C127.776 40.9893 126.464 41.256 125.014 41.256C123.264 41.256 121.707 40.8827 120.342 40.136C118.976 39.3893 117.91 38.3227 117.142 36.936C116.374 35.5493 115.99 33.928 115.99 32.072C115.99 30.216 116.363 28.5947 117.11 27.208C117.878 25.8213 118.944 24.7547 120.31 24.008C121.675 23.2613 123.243 22.888 125.014 22.888C126.742 22.888 128.278 23.2507 129.622 23.976C130.966 24.7013 132.011 25.736 132.758 27.08C133.526 28.424 133.91 29.992 133.91 31.784ZM128.31 30.344C128.31 29.4053 127.99 28.6587 127.35 28.104C126.71 27.5493 125.91 27.272 124.95 27.272C124.032 27.272 123.254 27.5387 122.614 28.072C121.995 28.6053 121.611 29.3627 121.462 30.344H128.31ZM142.269 26.12C142.909 25.1387 143.709 24.3707 144.669 23.816C145.629 23.24 146.695 22.952 147.869 22.952V28.744H146.365C144.999 28.744 143.975 29.0427 143.293 29.64C142.61 30.216 142.269 31.24 142.269 32.712V41H136.797V23.144H142.269V26.12ZM167.86 25.16C167.241 23.8587 166.345 22.856 165.172 22.152C163.999 21.4267 162.633 21.064 161.076 21.064C159.519 21.064 158.111 21.4267 156.852 22.152C155.615 22.856 154.633 23.88 153.908 25.224C153.204 26.5467 152.852 28.0827 152.852 29.832C152.852 31.5813 153.204 33.1173 153.908 34.44C154.633 35.7627 155.615 36.7867 156.852 37.512C158.111 38.216 159.519 38.568 161.076 38.568C163.252 38.568 165.044 37.9173 166.452 36.616C167.86 35.3147 168.681 33.5547 168.916 31.336H160.02V28.968H172.02V31.208C171.849 33.0427 171.273 34.728 170.292 36.264C169.311 37.7787 168.02 38.984 166.42 39.88C164.82 40.7547 163.039 41.192 161.076 41.192C159.007 41.192 157.119 40.712 155.412 39.752C153.705 38.7707 152.351 37.416 151.348 35.688C150.367 33.96 149.876 32.008 149.876 29.832C149.876 27.656 150.367 25.704 151.348 23.976C152.351 22.2267 153.705 20.872 155.412 19.912C157.119 18.9307 159.007 18.44 161.076 18.44C163.444 18.44 165.535 19.0267 167.348 20.2C169.183 21.3733 170.516 23.0267 171.348 25.16H167.86ZM174.782 32.168C174.782 30.376 175.145 28.808 175.87 27.464C176.596 26.0987 177.588 25.0427 178.846 24.296C180.126 23.5493 181.545 23.176 183.102 23.176C184.638 23.176 185.972 23.5067 187.102 24.168C188.233 24.8293 189.076 25.6613 189.63 26.664V23.464H192.574V41H189.63V37.736C189.054 38.76 188.19 39.6133 187.038 40.296C185.908 40.9573 184.585 41.288 183.07 41.288C181.513 41.288 180.105 40.904 178.846 40.136C177.588 39.368 176.596 38.2907 175.87 36.904C175.145 35.5173 174.782 33.9387 174.782 32.168ZM189.63 32.2C189.63 30.8773 189.364 29.7253 188.83 28.744C188.297 27.7627 187.572 27.016 186.654 26.504C185.758 25.9707 184.766 25.704 183.678 25.704C182.59 25.704 181.598 25.96 180.702 26.472C179.806 26.984 179.092 27.7307 178.558 28.712C178.025 29.6933 177.758 30.8453 177.758 32.168C177.758 33.512 178.025 34.6853 178.558 35.688C179.092 36.6693 179.806 37.4267 180.702 37.96C181.598 38.472 182.59 38.728 183.678 38.728C184.766 38.728 185.758 38.472 186.654 37.96C187.572 37.4267 188.297 36.6693 188.83 35.688C189.364 34.6853 189.63 33.5227 189.63 32.2ZM198.999 20.616C198.445 20.616 197.975 20.424 197.591 20.04C197.207 19.656 197.015 19.1867 197.015 18.632C197.015 18.0773 197.207 17.608 197.591 17.224C197.975 16.84 198.445 16.648 198.999 16.648C199.533 16.648 199.981 16.84 200.343 17.224C200.727 17.608 200.919 18.0773 200.919 18.632C200.919 19.1867 200.727 19.656 200.343 20.04C199.981 20.424 199.533 20.616 198.999 20.616ZM200.407 23.464V41H197.495V23.464H200.407ZM213.914 23.144C216.048 23.144 217.776 23.7947 219.098 25.096C220.421 26.376 221.082 28.232 221.082 30.664V41H218.202V31.08C218.202 29.3307 217.765 27.9973 216.89 27.08C216.016 26.1413 214.821 25.672 213.306 25.672C211.77 25.672 210.544 26.152 209.626 27.112C208.73 28.072 208.282 29.4693 208.282 31.304V41H205.37V23.464H208.282V25.96C208.858 25.064 209.637 24.3707 210.618 23.88C211.621 23.3893 212.72 23.144 213.914 23.144Z" fill="black"/>
<path d="M4 9.85777C15.7119 -0.298275 22.5661 -0.491238 35.3507 9.85777" stroke="black" stroke-width="2.4"/>
<path d="M40.1671 13.5361L29.4114 12.9641L36.0501 3.50012L40.1671 13.5361Z" fill="black"/>
</svg>
