<svg width="104" height="104" viewBox="0 0 104 104" fill="none" xmlns="http://www.w3.org/2000/svg">
<g filter="url(#filter0_bdd_510_810)">
<rect x="12" y="4" width="80" height="80" rx="40" fill="white" fill-opacity="0.6" shape-rendering="crispEdges"/>
</g>
<path fill-rule="evenodd" clip-rule="evenodd" d="M46.6349 26.6496C40.6849 27.9948 36.0163 32.5674 34.5839 38.4528C33.8006 41.671 33.8078 45.0574 34.591 48.2755C36.0458 54.253 40.3252 59.2276 46.0659 61.5456L46.3161 61.6466C48.8003 62.6497 51.6461 61.4416 52.6655 58.9803C52.946 58.3029 53.614 57.8535 54.3521 57.8535H56.5997C62.7129 57.8535 68.0307 53.6998 69.4656 47.8042C70.1781 44.8764 70.1781 41.8225 69.4656 38.8948L69.2774 38.1218C67.8944 32.4392 63.3866 28.0241 57.6417 26.7253L56.8347 26.5428C53.6332 25.8191 50.3087 25.8191 47.1072 26.5428L46.6349 26.6496ZM45.0039 36.7334C44.2343 36.7334 43.6105 37.3523 43.6105 38.1158C43.6105 38.8794 44.2343 39.4983 45.0039 39.4983H57.7768C58.5464 39.4983 59.1702 38.8794 59.1702 38.1158C59.1702 37.3523 58.5464 36.7334 57.7768 36.7334H45.0039ZM47.3262 43.6457C46.5567 43.6457 45.9328 44.2647 45.9328 45.0282C45.9328 45.7917 46.5567 46.4106 47.3262 46.4106H55.4545C56.224 46.4106 56.8479 45.7917 56.8479 45.0282C56.8479 44.2647 56.224 43.6457 55.4545 43.6457H47.3262Z" fill="#D0CFE0"/>
<defs>
<filter id="filter0_bdd_510_810" x="-28" y="-36" width="160" height="160" filterUnits="userSpaceOnUse" color-interpolation-filters="sRGB">
<feFlood flood-opacity="0" result="BackgroundImageFix"/>
<feGaussianBlur in="BackgroundImageFix" stdDeviation="20"/>
<feComposite in2="SourceAlpha" operator="in" result="effect1_backgroundBlur_510_810"/>
<feColorMatrix in="SourceAlpha" type="matrix" values="0 0 0 0 0 0 0 0 0 0 0 0 0 0 0 0 0 0 127 0" result="hardAlpha"/>
<feMorphology radius="6" operator="erode" in="SourceAlpha" result="effect2_dropShadow_510_810"/>
<feOffset dy="8"/>
<feGaussianBlur stdDeviation="9"/>
<feColorMatrix type="matrix" values="0 0 0 0 0.0941176 0 0 0 0 0.152941 0 0 0 0 0.294118 0 0 0 0.12 0"/>
<feBlend mode="normal" in2="effect1_backgroundBlur_510_810" result="effect2_dropShadow_510_810"/>
<feColorMatrix in="SourceAlpha" type="matrix" values="0 0 0 0 0 0 0 0 0 0 0 0 0 0 0 0 0 0 127 0" result="hardAlpha"/>
<feOffset dy="4"/>
<feGaussianBlur stdDeviation="2"/>
<feComposite in2="hardAlpha" operator="out"/>
<feColorMatrix type="matrix" values="0 0 0 0 0 0 0 0 0 0 0 0 0 0 0 0 0 0 0.25 0"/>
<feBlend mode="normal" in2="effect2_dropShadow_510_810" result="effect3_dropShadow_510_810"/>
<feBlend mode="normal" in="SourceGraphic" in2="effect3_dropShadow_510_810" result="shape"/>
</filter>
</defs>
</svg>
