<svg width="80" height="80" viewBox="0 0 80 80" fill="none" xmlns="http://www.w3.org/2000/svg">
<rect width="80" height="80" rx="40" fill="white" fill-opacity="0.6"/>
<path fill-rule="evenodd" clip-rule="evenodd" d="M34.6349 22.6496C28.6849 23.9948 24.0163 28.5674 22.5839 34.4528C21.8006 37.671 21.8078 41.0574 22.591 44.2755C24.0458 50.253 28.3252 55.2276 34.0659 57.5456L34.3161 57.6466C36.8003 58.6497 39.6461 57.4416 40.6655 54.9803C40.946 54.3029 41.614 53.8535 42.3521 53.8535H44.5997C50.7129 53.8535 56.0307 49.6998 57.4656 43.8042C58.1781 40.8764 58.1781 37.8225 57.4656 34.8948L57.2774 34.1218C55.8944 28.4392 51.3866 24.0241 45.6417 22.7253L44.8347 22.5428C41.6332 21.8191 38.3087 21.8191 35.1072 22.5428L34.6349 22.6496ZM33.0039 32.7334C32.2343 32.7334 31.6105 33.3523 31.6105 34.1158C31.6105 34.8794 32.2343 35.4983 33.0039 35.4983H45.7768C46.5464 35.4983 47.1702 34.8794 47.1702 34.1158C47.1702 33.3523 46.5464 32.7334 45.7768 32.7334H33.0039ZM35.3262 39.6457C34.5567 39.6457 33.9328 40.2647 33.9328 41.0282C33.9328 41.7917 34.5567 42.4106 35.3262 42.4106H43.4545C44.224 42.4106 44.8479 41.7917 44.8479 41.0282C44.8479 40.2647 44.224 39.6457 43.4545 39.6457H35.3262Z" fill="#D0CFE0"/>
</svg>
