<svg width="36" height="36" viewBox="0 0 36 36" fill="none" xmlns="http://www.w3.org/2000/svg">
<path d="M29.3193 26.9311C29.6364 27.2481 29.8144 27.6781 29.8144 28.1264C29.8144 28.5747 29.6364 29.0047 29.3193 29.3217C29.0023 29.6387 28.5724 29.8168 28.124 29.8168C27.6757 29.8168 27.2457 29.6387 26.9287 29.3217L18.0004 20.3906L9.06933 29.3189C8.75232 29.6359 8.32235 29.814 7.87402 29.814C7.42569 29.814 6.99573 29.6359 6.67871 29.3189C6.36169 29.0019 6.18359 28.5719 6.18359 28.1236C6.18359 27.6753 6.36169 27.2453 6.67871 26.9283L15.6098 18L6.68152 9.06891C6.3645 8.75189 6.18641 8.32193 6.18641 7.8736C6.18641 7.42527 6.3645 6.9953 6.68152 6.67828C6.99854 6.36127 7.4285 6.18317 7.87683 6.18317C8.32516 6.18317 8.75513 6.36127 9.07215 6.67828L18.0004 15.6094L26.9315 6.67688C27.2485 6.35986 27.6785 6.18176 28.1268 6.18176C28.5752 6.18176 29.0051 6.35986 29.3221 6.67688C29.6392 6.99389 29.8173 7.42386 29.8173 7.87219C29.8173 8.32052 29.6392 8.75049 29.3221 9.0675L20.3911 18L29.3193 26.9311Z" fill="#D0CFE0"/>
</svg>
