<svg width="30" height="30" viewBox="0 0 30 30" fill="none" xmlns="http://www.w3.org/2000/svg">
<path d="M24.5043 9.66931L15.72 18.3149C15.5283 18.5045 15.2696 18.6109 15 18.6109C14.7304 18.6109 14.4716 18.5045 14.28 18.3149L5.49559 9.67118C5.30273 9.48166 5.04316 9.37547 4.77278 9.37547C4.50239 9.37547 4.24282 9.48166 4.04996 9.67118C3.955 9.76376 3.87952 9.87442 3.82799 9.99662C3.77646 10.1188 3.74991 10.2501 3.74991 10.3827C3.74991 10.5154 3.77646 10.6467 3.82799 10.7689C3.87952 10.8911 3.955 11.0017 4.04996 11.0943L12.8325 19.7381C13.4109 20.306 14.1893 20.6243 15 20.6243C15.8107 20.6243 16.589 20.306 17.1675 19.7381L25.95 11.0943C26.0452 11.0017 26.1209 10.8909 26.1726 10.7685C26.2243 10.6462 26.251 10.5147 26.251 10.3818C26.251 10.249 26.2243 10.1174 26.1726 9.99507C26.1209 9.87269 26.0452 9.76192 25.95 9.66931C25.7571 9.47979 25.4975 9.3736 25.2271 9.3736C24.9568 9.3736 24.6972 9.47979 24.5043 9.66931Z" fill="currentColor"/>
</svg>
