<svg width="121" height="120" viewBox="0 0 121 120" fill="none" xmlns="http://www.w3.org/2000/svg">
<path opacity="0.3" d="M100.5 40V60.4C98.85 60.15 97.2 60 95.5 60C77.85 60 63.35 73.05 60.9 90H20.5V40L60.5 65L100.5 40ZM100.5 30H20.5L60.5 55L100.5 30Z" fill="#3D3A7F"/>
<path d="M60.9 90H20.5V40L60.5 65L100.5 40V60.4C104.05 60.9 107.4 61.95 110.5 63.4V30C110.5 24.5 106 20 100.5 20H20.5C15 20 10.55 24.5 10.55 30L10.5 90C10.5 95.5 15 100 20.5 100H60.9C60.65 98.35 60.5 96.7 60.5 95C60.5 93.3 60.65 91.65 60.9 90ZM100.5 30L60.5 55L20.5 30H100.5ZM87.2 110L69.5 92.3L76.55 85.25L87.15 95.85L108.35 74.65L115.5 81.7L87.2 110Z" fill="#3D3A7F"/>
</svg>
