<svg width="240" height="240" viewBox="0 0 240 240" fill="none" xmlns="http://www.w3.org/2000/svg">
<g style="mix-blend-mode:luminosity" opacity="0.4">
<circle cx="120" cy="120" r="120" fill="#D9D9D9"/>
<g clip-path="url(#clip0_966_1326)">
<path d="M155.548 68.9163H100.499V91.745H167.305V80.6689C167.305 74.1879 162.031 68.9163 155.548 68.9163Z" fill="#A1A0BC"/>
<path d="M124.386 95.2579H60V74.0753C60 66.3135 66.3162 60 74.0808 60H94.6674C96.7136 60 98.6847 60.4312 100.475 61.2415C102.977 62.3685 105.125 64.2261 106.632 66.6531L124.386 95.2579Z" fill="#3D3A7F"/>
<path d="M180 100V168.233C180 174.722 174.717 180 168.225 180H71.7746C65.2826 180 60 174.722 60 168.233V88.2303H168.225C174.717 88.2303 180 93.5101 180 100Z" fill="#8968E7"/>
<path d="M180 100V168.233C180 174.722 174.717 180 168.225 180H120V88.2303H168.225C174.717 88.2303 180 93.5101 180 100Z" fill="#7F5EDC"/>
</g>
</g>
<defs>
<clipPath id="clip0_966_1326">
<rect width="120" height="120" fill="white" transform="translate(60 60)"/>
</clipPath>
</defs>
</svg>
