<svg width="current" height="current" viewBox="0 0 578 481" fill="none" xmlns="http://www.w3.org/2000/svg">
<g filter="url(#filter0_bd_1129_1676)">
<rect x="9" y="103" width="485.848" height="363.746" rx="8.53863" fill="white" fill-opacity="0.2" shape-rendering="crispEdges"/>
</g>
<line x1="9" y1="160.636" x2="494.848" y2="160.636" stroke="white" stroke-opacity="0.5" stroke-width="0.853863"/>
<circle opacity="0.5" cx="38.0314" cy="132.031" r="5.12318" fill="#868686"/>
<circle opacity="0.5" cx="55.1087" cy="132.031" r="5.12318" fill="#868686"/>
<circle opacity="0.5" cx="72.1859" cy="132.031" r="5.12318" fill="#868686"/>
<g filter="url(#filter1_b_1129_1676)">
<g filter="url(#filter2_d_1129_1676)">
<path d="M177.601 251.489V268.152H175.68V258.85H172.561C172.472 260.537 172.022 261.811 171.21 262.673C170.411 263.523 169.371 263.948 168.091 263.948C166.734 263.948 165.643 263.466 164.819 262.502C163.995 261.538 163.582 260.118 163.582 258.241C163.582 256.352 163.988 254.932 164.8 253.981C165.624 253.017 166.721 252.535 168.091 252.535C169.321 252.535 170.329 252.928 171.115 253.714C171.914 254.501 172.389 255.674 172.542 257.233H175.68V251.489H177.601ZM170.563 257.29C170.563 256.276 170.335 255.502 169.879 254.97C169.435 254.425 168.839 254.152 168.091 254.152C167.342 254.152 166.74 254.425 166.283 254.97C165.84 255.502 165.618 256.276 165.618 257.29V259.193C165.618 260.207 165.84 260.987 166.283 261.532C166.74 262.065 167.342 262.331 168.091 262.331C168.839 262.331 169.435 262.065 169.879 261.532C170.335 260.987 170.563 260.207 170.563 259.193V257.29ZM192.887 255.902V251.489H194.789V264.062H192.887V257.481H190.091V255.902H192.887ZM185.316 260.866C184.505 261.12 183.363 261.247 181.892 261.247H180.694V252.668H184.974V254.209H182.539V259.687C183.655 259.674 184.511 259.586 185.107 259.421L185.316 260.866ZM187.237 261.285H185.849V252.668H190.49V254.209H187.713V259.744C189.044 259.731 190.154 259.63 191.042 259.44L191.251 260.904C190.832 261.006 190.274 261.095 189.577 261.171C188.88 261.247 188.1 261.285 187.237 261.285ZM195.112 266.934V268.513H185.05C184.644 268.513 184.333 268.405 184.118 268.19C183.915 267.974 183.814 267.663 183.814 267.258V262.75H185.754V266.934H195.112ZM208.502 253.486H203.461V251.964H215.445V253.486H210.423C210.385 254.298 210.1 255.001 209.567 255.597L209.662 255.636L210.195 255.255C210.41 255.103 210.62 255.027 210.823 255.027C210.962 255.027 211.152 255.071 211.393 255.16L216.206 257.271L215.178 258.679L209.929 256.244C209.751 256.143 209.567 256.092 209.377 256.092C209.212 256.092 209.047 256.143 208.882 256.244C207.868 257.03 206.131 257.855 203.671 258.717L202.7 257.328C204.07 256.872 205.161 256.447 205.972 256.054C206.784 255.661 207.386 255.261 207.779 254.856C208.185 254.437 208.426 253.981 208.502 253.486ZM217.252 259.915V261.551H201.654V259.915H208.502V257.88H210.423V259.915H217.252ZM215.159 265.888C215.159 266.535 214.937 267.105 214.494 267.6C214.063 268.095 213.416 268.475 212.553 268.741C211.704 269.02 210.67 269.16 209.453 269.16C208.236 269.16 207.196 269.02 206.334 268.741C205.484 268.475 204.837 268.095 204.393 267.6C203.962 267.105 203.747 266.535 203.747 265.888C203.747 265.241 203.962 264.671 204.393 264.176C204.837 263.669 205.484 263.282 206.334 263.016C207.196 262.737 208.236 262.597 209.453 262.597C210.67 262.597 211.704 262.737 212.553 263.016C213.416 263.282 214.063 263.669 214.494 264.176C214.937 264.671 215.159 265.241 215.159 265.888ZM213.162 265.774C213.162 265.292 212.858 264.893 212.249 264.576C211.64 264.259 210.708 264.1 209.453 264.1C208.21 264.1 207.278 264.259 206.657 264.576C206.036 264.893 205.725 265.292 205.725 265.774V266.002C205.725 266.484 206.036 266.883 206.657 267.201C207.278 267.518 208.21 267.676 209.453 267.676C210.708 267.676 211.64 267.518 212.249 267.201C212.858 266.883 213.162 266.484 213.162 266.002V265.774ZM229.95 253.524H220.915V251.945H231.853V256.739H222.874V258.47H232.29V260.048H220.972V255.236H229.95V253.524ZM234.211 263.206H230.35V268.684H228.448V263.206H224.377V268.684H222.475V263.206H218.614V261.608H234.211V263.206ZM248.013 251.489H249.934V268.152H248.013V251.489ZM236.334 256.511C236.334 255.712 236.531 255.008 236.924 254.399C237.329 253.778 237.881 253.302 238.579 252.973C239.276 252.63 240.069 252.459 240.956 252.459C241.844 252.459 242.636 252.63 243.334 252.973C244.031 253.302 244.577 253.778 244.97 254.399C245.376 255.008 245.578 255.712 245.578 256.511C245.578 257.309 245.376 258.013 244.97 258.622C244.577 259.231 244.031 259.706 243.334 260.048C242.636 260.378 241.844 260.543 240.956 260.543C240.069 260.543 239.276 260.378 238.579 260.048C237.881 259.706 237.329 259.231 236.924 258.622C236.531 258.013 236.334 257.309 236.334 256.511ZM243.562 256.72V256.282C243.562 255.597 243.321 255.046 242.839 254.627C242.357 254.209 241.73 254 240.956 254C240.183 254 239.555 254.209 239.073 254.627C238.591 255.046 238.35 255.597 238.35 256.282V256.72C238.35 257.405 238.591 257.956 239.073 258.375C239.555 258.793 240.183 259.002 240.956 259.002C241.73 259.002 242.357 258.793 242.839 258.375C243.321 257.956 243.562 257.405 243.562 256.72ZM235.611 263.073C237.754 263.073 239.828 263.022 241.831 262.921C243.835 262.819 245.509 262.673 246.853 262.483L247.043 264.005C245.635 264.233 243.93 264.404 241.926 264.519C239.935 264.633 237.881 264.69 235.763 264.69L235.611 263.073ZM270.952 254.152H258.702V252.516H270.952V254.152ZM271.085 261.361H258.55V259.744H261.365L260.756 255.597L262.734 255.388L263.191 259.744H266.443L266.9 255.388L268.878 255.597L268.251 259.744H271.085V261.361ZM272.625 264.671V266.307H257.028V264.671H272.625ZM289.585 264.69V266.307H273.987V264.69H280.835V261.875H276.213V256.396H285.419V254.076H276.156V252.478H287.359V257.937H278.153V260.277H287.816V261.875H282.756V264.69H289.585ZM305.726 251.489V261.646H303.881V251.489H305.726ZM300.248 255.693V251.736H302.055V261.456H300.248V257.252H298.099V255.693H300.248ZM295.112 258.203C295.036 258.203 294.967 258.241 294.903 258.318C294.345 259.18 293.426 260.258 292.145 261.551L290.852 260.429C291.701 259.579 292.367 258.831 292.849 258.184C293.331 257.538 293.68 256.91 293.895 256.301C294.123 255.68 294.244 255.001 294.257 254.266H291.441V252.687H298.822V254.266H296.064C296.051 255.382 295.823 256.428 295.379 257.405L295.474 257.481L295.778 257.271C295.93 257.157 296.083 257.1 296.235 257.1C296.425 257.1 296.609 257.189 296.786 257.366L299.354 260.068L298.061 261.228L295.398 258.337C295.284 258.248 295.189 258.203 295.112 258.203ZM294.352 262.635H305.726V269.008H303.843V264.271H294.352V262.635ZM310.094 252.497H321.392V254.114H312.034V256.434H321.107V257.994H312.053V260.334H321.716V261.951H310.094V252.497ZM307.906 264.671H323.504V266.307H307.906V264.671ZM339.265 251.489V264.062H337.344V251.489H339.265ZM325.341 256.72C325.341 255.807 325.531 255.021 325.912 254.361C326.292 253.689 326.819 253.175 327.491 252.82C328.163 252.465 328.936 252.288 329.811 252.288C330.686 252.288 331.46 252.465 332.132 252.82C332.817 253.175 333.349 253.689 333.73 254.361C334.11 255.021 334.3 255.807 334.3 256.72C334.3 257.62 334.11 258.406 333.73 259.078C333.349 259.738 332.817 260.245 332.132 260.6C331.46 260.955 330.686 261.133 329.811 261.133C328.936 261.133 328.163 260.955 327.491 260.6C326.819 260.245 326.292 259.738 325.912 259.078C325.531 258.406 325.341 257.62 325.341 256.72ZM332.246 257.176V256.263C332.246 255.54 332.024 254.963 331.58 254.532C331.136 254.101 330.547 253.886 329.811 253.886C329.076 253.886 328.486 254.101 328.042 254.532C327.598 254.963 327.377 255.54 327.377 256.263V257.176C327.377 257.899 327.598 258.476 328.042 258.907C328.486 259.338 329.076 259.554 329.811 259.554C330.547 259.554 331.136 259.338 331.58 258.907C332.024 258.476 332.246 257.899 332.246 257.176ZM328.48 267.258V262.692H330.401V266.934H339.607V268.513H329.716C329.31 268.513 329 268.405 328.784 268.19C328.581 267.974 328.48 267.663 328.48 267.258ZM357.917 259.44H355.254V268.171H353.333V251.508H355.254V257.823H357.917V259.44ZM342.548 252.82H350.195V255.578C350.195 256.999 349.979 258.21 349.548 259.212C349.117 260.201 348.4 261.12 347.398 261.97C346.409 262.819 345.002 263.745 343.176 264.747L342.034 263.282C343.708 262.407 344.983 261.615 345.858 260.904C346.733 260.182 347.348 259.414 347.703 258.603C348.058 257.779 348.235 256.77 348.235 255.578V254.456H342.548V252.82ZM360.516 256.606C360.516 255.756 360.738 254.989 361.181 254.304C361.638 253.619 362.316 253.08 363.217 252.687C364.13 252.294 365.252 252.098 366.583 252.098C367.915 252.098 369.031 252.294 369.931 252.687C370.844 253.08 371.523 253.619 371.966 254.304C372.423 254.989 372.651 255.756 372.651 256.606C372.651 257.468 372.423 258.241 371.966 258.926C371.523 259.598 370.844 260.137 369.931 260.543C369.031 260.936 367.915 261.133 366.583 261.133C365.252 261.133 364.13 260.936 363.217 260.543C362.316 260.137 361.638 259.598 361.181 258.926C360.738 258.241 360.516 257.468 360.516 256.606ZM362.589 256.834C362.589 257.633 362.925 258.292 363.597 258.812C364.269 259.332 365.265 259.592 366.583 259.592C367.902 259.592 368.898 259.332 369.57 258.812C370.242 258.292 370.578 257.633 370.578 256.834V256.396C370.578 255.585 370.242 254.919 369.57 254.399C368.91 253.879 367.915 253.619 366.583 253.619C365.252 253.619 364.25 253.879 363.578 254.399C362.919 254.919 362.589 255.585 362.589 256.396V256.834ZM374.382 264.69V266.307H358.785V264.69H362.589V261.627H364.491V264.69H368.676V261.627H370.559V264.69H374.382ZM378.293 262.027V259.002C379.32 258.952 380.106 258.736 380.652 258.356C381.21 257.962 381.489 257.386 381.489 256.625V256.358C381.489 255.775 381.311 255.325 380.956 255.008C380.601 254.678 380.125 254.513 379.529 254.513C378.895 254.513 378.388 254.697 378.008 255.065C377.627 255.433 377.367 255.902 377.228 256.472L375.421 255.75C375.535 255.357 375.7 254.976 375.915 254.608C376.144 254.241 376.429 253.917 376.771 253.638C377.114 253.347 377.519 253.118 377.989 252.954C378.458 252.776 378.997 252.687 379.605 252.687C380.227 252.687 380.791 252.776 381.298 252.954C381.806 253.131 382.237 253.385 382.592 253.714C382.947 254.031 383.219 254.425 383.41 254.894C383.6 255.35 383.695 255.857 383.695 256.415C383.695 256.986 383.594 257.5 383.391 257.956C383.2 258.4 382.941 258.78 382.611 259.097C382.294 259.414 381.932 259.674 381.527 259.877C381.121 260.068 380.702 260.201 380.271 260.277V262.027H378.293ZM379.301 266.421C378.819 266.421 378.464 266.307 378.236 266.078C378.02 265.837 377.913 265.533 377.913 265.165V264.842C377.913 264.474 378.02 264.176 378.236 263.948C378.464 263.707 378.819 263.586 379.301 263.586C379.783 263.586 380.132 263.707 380.347 263.948C380.576 264.176 380.69 264.474 380.69 264.842V265.165C380.69 265.533 380.576 265.837 380.347 266.078C380.132 266.307 379.783 266.421 379.301 266.421Z" fill="white"/>
</g>
<g filter="url(#filter3_d_1129_1676)">
<path d="M132.083 269.483H130.2C129.452 269.483 128.9 269.293 128.545 268.912C128.203 268.532 128.032 268.018 128.032 267.372V266.364C127.283 266.275 126.611 266.059 126.015 265.717C125.419 265.374 124.912 264.918 124.494 264.347C124.075 263.777 123.752 263.092 123.524 262.293C123.295 261.481 123.181 260.568 123.181 259.554C123.181 258.438 123.314 257.455 123.581 256.606C123.86 255.743 124.246 255.027 124.741 254.456C125.248 253.873 125.851 253.435 126.548 253.144C127.258 252.839 128.044 252.687 128.907 252.687C129.769 252.687 130.549 252.839 131.246 253.144C131.956 253.435 132.559 253.873 133.053 254.456C133.56 255.027 133.947 255.743 134.214 256.606C134.493 257.455 134.632 258.438 134.632 259.554C134.632 261.532 134.22 263.098 133.396 264.252C132.571 265.393 131.455 266.085 130.048 266.326V267.695H132.083V269.483ZM128.907 264.499C129.414 264.499 129.877 264.411 130.295 264.233C130.726 264.056 131.088 263.802 131.379 263.472C131.684 263.13 131.918 262.718 132.083 262.236C132.248 261.754 132.33 261.209 132.33 260.6V258.508C132.33 257.899 132.248 257.354 132.083 256.872C131.918 256.39 131.684 255.984 131.379 255.655C131.088 255.312 130.726 255.052 130.295 254.875C129.877 254.697 129.414 254.608 128.907 254.608C128.387 254.608 127.917 254.697 127.499 254.875C127.081 255.052 126.719 255.312 126.415 255.655C126.123 255.984 125.895 256.39 125.73 256.872C125.565 257.354 125.483 257.899 125.483 258.508V260.6C125.483 261.209 125.565 261.754 125.73 262.236C125.895 262.718 126.123 263.13 126.415 263.472C126.719 263.802 127.081 264.056 127.499 264.233C127.917 264.411 128.387 264.499 128.907 264.499ZM137.35 266.192V264.404H141.079V254.475H140.926L137.845 257.766L136.533 256.587L139.918 252.915H143.19V264.404H146.424V266.192H137.35ZM149.84 266.421C149.371 266.421 149.022 266.3 148.794 266.059C148.566 265.806 148.451 265.495 148.451 265.127V264.842C148.451 264.474 148.566 264.17 148.794 263.929C149.022 263.675 149.371 263.548 149.84 263.548C150.309 263.548 150.658 263.675 150.886 263.929C151.114 264.17 151.229 264.474 151.229 264.842V265.127C151.229 265.495 151.114 265.806 150.886 266.059C150.658 266.3 150.309 266.421 149.84 266.421Z" fill="white"/>
</g>
<g filter="url(#filter4_b_1129_1676)">
<rect x="259.089" y="330.082" width="184.507" height="28.532" rx="14.266" fill="white" fill-opacity="0.5"/>
<rect x="259.564" y="330.558" width="183.556" height="27.5809" rx="13.7905" stroke="white" stroke-opacity="0.5" stroke-width="0.951067"/>
<path d="M329.517 339.785V349.851H328.17V344.305H326.47C326.401 345.301 326.12 346.055 325.625 346.564C325.138 347.074 324.511 347.329 323.742 347.329C322.905 347.329 322.236 347.036 321.733 346.45C321.239 345.864 320.992 345.005 320.992 343.871C320.992 342.73 321.239 341.87 321.733 341.292C322.236 340.706 322.905 340.413 323.742 340.413C324.473 340.413 325.077 340.645 325.557 341.109C326.044 341.573 326.34 342.258 326.447 343.163H328.17V339.785H329.517ZM325.055 343.221C325.055 342.68 324.937 342.269 324.701 341.988C324.465 341.699 324.145 341.554 323.742 341.554C323.339 341.554 323.019 341.699 322.783 341.988C322.548 342.269 322.43 342.68 322.43 343.221V344.522C322.43 345.062 322.548 345.476 322.783 345.766C323.019 346.047 323.339 346.188 323.742 346.188C324.145 346.188 324.465 346.047 324.701 345.766C324.937 345.476 325.055 345.062 325.055 344.522V343.221ZM339.316 341.041H332.08V340.002H339.316V341.041ZM339.396 343.631H332V342.616H333.461L333.21 341.463L334.58 341.326L334.762 342.616H336.623L336.794 341.326L338.163 341.463L337.912 342.616H339.396V343.631ZM340.4 344.236V345.32H330.996V344.236H340.4ZM333.69 349.292H339.293V350.308H333.279C332.7 350.308 332.411 350.019 332.411 349.44V347.649H337.741V346.941H332.354V345.948H339.031V348.573H333.69V349.292ZM349.857 339.785V349.851H348.487V339.785H349.857ZM347.483 346.039L347.643 347.135C346.988 347.249 346.3 347.337 345.577 347.398C344.854 347.451 343.972 347.477 342.929 347.477H341.788V343.289H345.143V341.657H341.765V340.516H346.502V344.407H343.146V346.359C344.79 346.351 346.235 346.245 347.483 346.039ZM360.272 339.785V349.851H358.983V339.785H360.272ZM356.791 339.934H358.07V349.577H356.791V344.579H355.467C355.247 345.165 354.885 345.72 354.383 346.245C353.881 346.762 353.192 347.333 352.318 347.957L351.462 347.067C352.253 346.504 352.865 346.005 353.299 345.572C353.74 345.13 354.06 344.67 354.258 344.191L351.61 344.43L351.462 343.346L354.509 343.186C354.524 342.973 354.532 342.806 354.532 342.684V341.828H351.838V340.767H355.787V342.707C355.787 342.996 355.772 343.247 355.741 343.46H356.791V339.934ZM368.839 339.785H370.208V349.851H368.839V339.785ZM361.751 343.871C361.751 342.73 362.002 341.87 362.505 341.292C363.014 340.706 363.692 340.413 364.536 340.413C365.373 340.413 366.043 340.706 366.545 341.292C367.047 341.87 367.298 342.73 367.298 343.871C367.298 345.005 367.047 345.864 366.545 346.45C366.043 347.036 365.373 347.329 364.536 347.329C363.699 347.329 363.026 347.036 362.516 346.45C362.006 345.864 361.751 345.005 361.751 343.871ZM365.849 344.51V343.232C365.849 342.684 365.731 342.269 365.495 341.988C365.259 341.699 364.939 341.554 364.536 341.554C364.133 341.554 363.809 341.699 363.566 341.988C363.323 342.277 363.201 342.692 363.201 343.232V344.51C363.201 345.05 363.323 345.465 363.566 345.754C363.809 346.043 364.133 346.188 364.536 346.188C364.939 346.188 365.259 346.047 365.495 345.766C365.731 345.476 365.849 345.058 365.849 344.51ZM379.06 344.065H377.314V342.969H379.06V342.034H377.314V340.927H379.06V339.785H380.418V347.341H379.06V344.065ZM374.723 343.825C374.67 343.825 374.624 343.848 374.586 343.894C374.381 344.244 374.118 344.598 373.799 344.955C373.487 345.313 373.087 345.724 372.6 346.188L371.585 345.32C372.178 344.788 372.646 344.305 372.988 343.871C373.331 343.43 373.582 342.992 373.742 342.559C373.901 342.117 373.981 341.634 373.981 341.109V340.276H375.339V341.178C375.339 341.946 375.191 342.661 374.894 343.323L374.951 343.369L375.225 343.141C375.347 343.042 375.469 342.992 375.591 342.992C375.712 342.992 375.823 343.046 375.922 343.152L377.793 345.081L376.8 346.005L374.86 343.894C374.83 343.848 374.784 343.825 374.723 343.825ZM380.612 348.95V350.068H374.7C374.122 350.068 373.833 349.779 373.833 349.201V346.622H375.203V348.95H380.612Z" fill="#7F7F7F"/>
<rect x="264.082" y="335.075" width="18.5458" height="18.5458" rx="9.2729" fill="#D9D9D9" stroke="#C7BAD6" stroke-width="0.475534"/>
<path d="M275.2 344.292C275.798 344.403 276.29 344.702 276.676 345.189C277.061 345.676 277.254 346.234 277.254 346.863C277.254 347.431 277.112 347.933 276.828 348.37C276.554 348.796 276.153 349.131 275.626 349.374C275.098 349.618 274.474 349.739 273.754 349.739H269.174V339.118H273.556C274.277 339.118 274.895 339.234 275.413 339.468C275.94 339.701 276.336 340.026 276.6 340.442C276.874 340.858 277.011 341.329 277.011 341.857C277.011 342.476 276.843 342.993 276.508 343.409C276.184 343.825 275.748 344.119 275.2 344.292ZM271.304 343.5H273.252C273.759 343.5 274.15 343.389 274.424 343.165C274.698 342.932 274.835 342.602 274.835 342.176C274.835 341.75 274.698 341.421 274.424 341.187C274.15 340.954 273.759 340.837 273.252 340.837H271.304V343.5ZM273.45 348.005C273.967 348.005 274.368 347.883 274.652 347.639C274.946 347.396 275.093 347.051 275.093 346.605C275.093 346.148 274.941 345.793 274.637 345.539C274.332 345.276 273.921 345.144 273.404 345.144H271.304V348.005H273.45Z" fill="#C7BAD6"/>
</g>
<g filter="url(#filter5_b_1129_1676)">
<rect x="65.071" y="330.082" width="184.507" height="28.532" rx="14.266" fill="white" fill-opacity="0.5"/>
<rect x="65.5466" y="330.558" width="183.556" height="27.5809" rx="13.7905" stroke="white" stroke-opacity="0.5" stroke-width="0.951067"/>
<path d="M146.022 339.785V346.234H144.767V339.785H146.022ZM142.747 344.932V339.934H143.98V346.165H142.747V345.845H141.103V344.932H142.747ZM137.326 341.657C137.326 341.14 137.535 340.736 137.954 340.447C138.372 340.158 138.935 340.014 139.643 340.014C140.35 340.014 140.909 340.158 141.32 340.447C141.739 340.736 141.948 341.14 141.948 341.657C141.948 342.167 141.739 342.566 141.32 342.855C140.902 343.144 140.343 343.289 139.643 343.289C138.935 343.289 138.372 343.144 137.954 342.855C137.535 342.566 137.326 342.167 137.326 341.657ZM138.558 341.691C138.558 341.919 138.65 342.094 138.832 342.216C139.023 342.338 139.293 342.399 139.643 342.399C139.985 342.399 140.251 342.338 140.442 342.216C140.632 342.094 140.727 341.919 140.727 341.691V341.623C140.727 341.394 140.632 341.219 140.442 341.098C140.251 340.968 139.985 340.904 139.643 340.904C139.3 340.904 139.034 340.965 138.844 341.086C138.654 341.208 138.558 341.387 138.558 341.623V341.691ZM138.958 346.222V344.727C138.372 344.757 137.702 344.773 136.949 344.773L136.847 343.757C137.919 343.757 138.935 343.73 139.894 343.677C140.86 343.624 141.651 343.544 142.268 343.437L142.382 344.385C141.887 344.484 141.168 344.571 140.225 344.647V346.222H138.958ZM144.721 346.61H146.022V350.319H140.076C139.498 350.319 139.209 350.03 139.209 349.452V346.61H140.51V347.489H144.721V346.61ZM144.721 348.459H140.51V349.326H144.721V348.459ZM156.792 344.647H155.239V349.863H153.881V339.785H155.239V343.517H156.792V344.647ZM150.891 343.962C151.028 343.962 151.146 344.019 151.245 344.134L153.162 346.633L152.112 347.535L150.161 344.875C150.138 344.83 150.104 344.807 150.058 344.807C150.02 344.807 149.982 344.83 149.944 344.875C149.738 345.294 149.476 345.72 149.156 346.154C148.837 346.587 148.426 347.105 147.924 347.706L146.874 346.827C147.475 346.165 147.947 345.572 148.289 345.047C148.639 344.514 148.894 343.981 149.054 343.449C149.221 342.916 149.305 342.327 149.305 341.68V340.447H150.674V341.668C150.674 342.589 150.526 343.453 150.229 344.259L150.286 344.305L150.537 344.099C150.651 344.008 150.769 343.962 150.891 343.962ZM164.605 339.785H165.974V349.851H164.605V339.785ZM157.517 343.871C157.517 342.73 157.768 341.87 158.271 341.292C158.78 340.706 159.458 340.413 160.302 340.413C161.139 340.413 161.809 340.706 162.311 341.292C162.813 341.87 163.064 342.73 163.064 343.871C163.064 345.005 162.813 345.864 162.311 346.45C161.809 347.036 161.139 347.329 160.302 347.329C159.465 347.329 158.792 347.036 158.282 346.45C157.772 345.864 157.517 345.005 157.517 343.871ZM161.615 344.51V343.232C161.615 342.684 161.497 342.269 161.261 341.988C161.025 341.699 160.705 341.554 160.302 341.554C159.899 341.554 159.576 341.699 159.332 341.988C159.089 342.277 158.967 342.692 158.967 343.232V344.51C158.967 345.05 159.089 345.465 159.332 345.754C159.576 346.043 159.899 346.188 160.302 346.188C160.705 346.188 161.025 346.047 161.261 345.766C161.497 345.476 161.615 345.058 161.615 344.51ZM168.766 340.379H175.614V341.52H170.124V342.73H175.431V343.814H170.147V345.024H175.796V346.165H168.766V340.379ZM167.465 347.603H176.869V348.756H167.465V347.603Z" fill="#7F7F7F"/>
<rect x="70.0642" y="335.075" width="18.5458" height="18.5458" rx="9.2729" fill="#D9D9D9" stroke="#C7BAD6" stroke-width="0.475534"/>
<path d="M81.5261 347.444H77.1331L76.3782 349.579H74.5818L78.3408 339.117H80.3335L84.0925 349.579H82.2809L81.5261 347.444ZM81.043 346.046L79.3371 341.191L77.6161 346.046H81.043Z" fill="#C7BAD6"/>
</g>
</g>
<g filter="url(#filter6_bd_1129_1676)">
<rect x="234" y="3" width="337.26" height="199.584" rx="5.92764" fill="white" fill-opacity="0.2" shape-rendering="crispEdges"/>
</g>
<g style="mix-blend-mode:luminosity" opacity="0.4">
<circle cx="408.972" cy="92.803" r="42.6791" fill="#D9D9D9"/>
<g clip-path="url(#clip0_1129_1676)">
<path d="M421.615 74.6346H402.036V82.7539H425.796V78.8146C425.796 76.5095 423.92 74.6346 421.615 74.6346Z" fill="#A1A0BC" fill-opacity="0.4"/>
<path d="M410.532 84.0033H387.632V76.4695C387.632 73.7089 389.879 71.4635 392.64 71.4635H399.962C400.69 71.4635 401.391 71.6169 402.028 71.905C402.917 72.3059 403.681 72.9665 404.217 73.8297L410.532 84.0033Z" fill="#3D3A7F"/>
<path d="M430.311 85.69V109.957C430.311 112.265 428.432 114.143 426.124 114.143H391.82C389.511 114.143 387.632 112.265 387.632 109.957V81.5038H426.124C428.432 81.5038 430.311 83.3817 430.311 85.69Z" fill="#8E889F"/>
<path d="M430.311 85.69V109.957C430.311 112.265 428.433 114.143 426.124 114.143H408.972V81.5038H426.124C428.433 81.5038 430.311 83.3817 430.311 85.69Z" fill="#877EA0" fill-opacity="0.4"/>
</g>
</g>
<path d="M349.415 151.766V152.492H342.415V151.766H345.488V150.187H343.346V146.235H344.199V147.524H347.605V146.235H348.459V150.187H346.35V151.766H349.415ZM344.199 149.47H347.605V148.232H344.199V149.47ZM356.487 145.842V149.743H355.625V145.842H356.487ZM350.239 147.84C350.239 147.475 350.324 147.157 350.495 146.884C350.666 146.605 350.902 146.391 351.204 146.243C351.511 146.095 351.858 146.022 352.245 146.022C352.632 146.022 352.976 146.095 353.278 146.243C353.585 146.391 353.824 146.605 353.995 146.884C354.166 147.157 354.251 147.475 354.251 147.84C354.251 148.204 354.166 148.525 353.995 148.804C353.824 149.077 353.585 149.288 353.278 149.436C352.976 149.584 352.632 149.658 352.245 149.658C351.858 149.658 351.511 149.584 351.204 149.436C350.902 149.288 350.666 149.077 350.495 148.804C350.324 148.525 350.239 148.204 350.239 147.84ZM353.338 147.976V147.703C353.338 147.407 353.235 147.171 353.03 146.995C352.831 146.818 352.569 146.73 352.245 146.73C351.921 146.73 351.656 146.818 351.451 146.995C351.252 147.171 351.152 147.407 351.152 147.703V147.976C351.152 148.278 351.252 148.517 351.451 148.693C351.65 148.864 351.915 148.949 352.245 148.949C352.575 148.949 352.84 148.864 353.039 148.693C353.238 148.517 353.338 148.278 353.338 147.976ZM351.63 153.115V151.561H355.617V150.913H351.588V150.178H356.496V152.278H352.51V152.936H356.675V153.678H352.185C352.003 153.678 351.864 153.63 351.767 153.533C351.676 153.436 351.63 153.297 351.63 153.115ZM364.081 145.842V153.32H363.219V149.18H361.87V148.454H363.219V145.842H364.081ZM362.118 150.58L362.229 151.271C361.318 151.442 360.211 151.527 358.908 151.527H358.063V148.514H360.513V147.114H358.037V146.397H361.366V149.222H358.917V150.819H358.968C360.186 150.819 361.236 150.739 362.118 150.58ZM373.453 146.67H368.075V146.004H373.453V146.67ZM373.529 148.642H367.998V147.993H369.168L368.963 147.012L369.833 146.926L369.987 147.993H371.532L371.677 146.926L372.556 147.012L372.351 147.993H373.529V148.642ZM374.263 149.197V149.905H367.264V149.197H374.263ZM369.15 152.97H373.444V153.67H368.886C368.704 153.67 368.564 153.621 368.468 153.524C368.377 153.428 368.331 153.288 368.331 153.106V151.732H372.411V151.152H368.28V150.46H373.231V152.381H369.15V152.97ZM381.507 145.842V153.32H380.679V145.842H381.507ZM379.066 145.962H379.885V153.115H379.066V149.205H378.178V148.488H379.066V145.962ZM378.374 150.571L378.477 151.262C378.113 151.342 377.723 151.405 377.307 151.45C376.892 151.496 376.4 151.519 375.831 151.519H375.156V148.591H377.017V147.268H375.139V146.551H377.854V149.291H375.993V150.819H376.061C376.926 150.819 377.697 150.736 378.374 150.571ZM388.051 145.842H388.921V153.32H388.051V145.842ZM382.673 148.872C382.673 148.025 382.858 147.387 383.228 146.96C383.603 146.528 384.101 146.312 384.722 146.312C385.336 146.312 385.828 146.528 386.198 146.96C386.574 147.387 386.762 148.025 386.762 148.872C386.762 149.715 386.574 150.352 386.198 150.784C385.828 151.217 385.336 151.433 384.722 151.433C384.107 151.433 383.612 151.217 383.236 150.784C382.861 150.352 382.673 149.715 382.673 148.872ZM385.84 149.291V148.454C385.84 147.993 385.737 147.643 385.532 147.404C385.328 147.16 385.057 147.037 384.722 147.037C384.38 147.037 384.107 147.16 383.902 147.404C383.697 147.643 383.595 147.993 383.595 148.454V149.291C383.595 149.746 383.697 150.096 383.902 150.341C384.107 150.585 384.38 150.708 384.722 150.708C385.057 150.708 385.328 150.585 385.532 150.341C385.737 150.096 385.84 149.746 385.84 149.291ZM391.077 146.295H396.148V147.02H391.948V148.062H396.02V148.761H391.956V149.811H396.293V150.537H391.077V146.295ZM390.096 151.758H397.095V152.492H390.096V151.758ZM404.928 149.41H403.733V153.328H402.87V145.851H403.733V148.685H404.928V149.41ZM398.031 146.44H401.462V147.677C401.462 148.315 401.365 148.858 401.172 149.308C400.978 149.752 400.657 150.164 400.207 150.545C399.763 150.927 399.132 151.342 398.312 151.792L397.8 151.134C398.551 150.742 399.123 150.386 399.516 150.067C399.908 149.743 400.184 149.399 400.344 149.035C400.503 148.665 400.583 148.212 400.583 147.677V147.174H398.031V146.44ZM412.251 150.076H411.414V145.953H412.251V147.686H413.13V145.842H413.966V150.289H413.13V148.394H412.251V150.076ZM409.212 148.633C409.166 148.633 409.129 148.656 409.101 148.702C408.97 148.935 408.805 149.171 408.606 149.41C408.407 149.649 408.151 149.925 407.838 150.238L407.24 149.718C407.633 149.308 407.937 148.949 408.153 148.642C408.37 148.329 408.523 148.025 408.614 147.729C408.711 147.433 408.76 147.103 408.76 146.739V146.243H409.579V146.764C409.579 147.322 409.491 147.808 409.314 148.224L409.357 148.258L409.502 148.147C409.582 148.084 409.65 148.053 409.707 148.053C409.775 148.053 409.846 148.09 409.92 148.164L411.141 149.496L410.552 150.067L409.323 148.693C409.289 148.653 409.252 148.633 409.212 148.633ZM413.983 152.09C413.983 152.409 413.887 152.691 413.693 152.936C413.505 153.186 413.227 153.382 412.857 153.524C412.487 153.667 412.04 153.738 411.517 153.738C410.993 153.738 410.546 153.667 410.176 153.524C409.807 153.382 409.525 153.186 409.331 152.936C409.144 152.691 409.05 152.409 409.05 152.09C409.05 151.772 409.144 151.49 409.331 151.245C409.525 150.995 409.807 150.802 410.176 150.665C410.546 150.523 410.993 150.452 411.517 150.452C412.04 150.452 412.487 150.523 412.857 150.665C413.227 150.802 413.505 150.995 413.693 151.245C413.887 151.49 413.983 151.772 413.983 152.09ZM413.062 152.031C413.062 151.78 412.934 151.57 412.677 151.399C412.421 151.228 412.034 151.143 411.517 151.143C410.999 151.143 410.609 151.228 410.347 151.399C410.091 151.57 409.963 151.78 409.963 152.031V152.159C409.963 152.409 410.091 152.617 410.347 152.782C410.609 152.953 410.999 153.038 411.517 153.038C412.034 153.038 412.421 152.953 412.677 152.782C412.934 152.617 413.062 152.409 413.062 152.159V152.031ZM420.544 148.113H419.033V147.396H420.544V145.842H421.406V150.289H420.544V148.113ZM417.249 148.437C417.215 148.437 417.181 148.454 417.147 148.488C416.993 148.739 416.794 148.998 416.549 149.265C416.305 149.527 415.989 149.837 415.602 150.196L414.962 149.624C415.423 149.22 415.784 148.861 416.046 148.548C416.307 148.235 416.498 147.928 416.618 147.626C416.737 147.319 416.797 146.98 416.797 146.61V146.098H417.667V146.662C417.667 147.197 417.559 147.689 417.343 148.138L417.386 148.164L417.574 148.002C417.665 147.939 417.747 147.908 417.821 147.908C417.901 147.908 417.972 147.939 418.035 148.002L419.537 149.393L418.914 149.999L417.36 148.488C417.326 148.454 417.289 148.437 417.249 148.437ZM421.432 152.065C421.432 152.384 421.338 152.668 421.15 152.918C420.962 153.175 420.686 153.374 420.322 153.516C419.958 153.664 419.517 153.738 418.999 153.738C418.481 153.738 418.037 153.664 417.667 153.516C417.298 153.374 417.019 153.175 416.831 152.918C416.643 152.668 416.549 152.384 416.549 152.065C416.549 151.746 416.643 151.462 416.831 151.211C417.019 150.955 417.298 150.756 417.667 150.614C418.037 150.466 418.481 150.392 418.999 150.392C419.517 150.392 419.958 150.466 420.322 150.614C420.686 150.756 420.962 150.955 421.15 151.211C421.338 151.462 421.432 151.746 421.432 152.065ZM420.518 151.997C420.518 151.74 420.39 151.527 420.134 151.356C419.884 151.18 419.506 151.092 418.999 151.092C418.487 151.092 418.103 151.18 417.847 151.356C417.596 151.527 417.471 151.74 417.471 151.997V152.142C417.471 152.392 417.596 152.603 417.847 152.773C418.103 152.95 418.487 153.038 418.999 153.038C419.506 153.038 419.884 152.95 420.134 152.773C420.39 152.603 420.518 152.392 420.518 152.142V151.997ZM429 145.842V153.32H428.138V145.842H429ZM427.608 150.913L427.685 151.604C427.053 151.701 426.288 151.775 425.389 151.826C424.49 151.877 423.571 151.903 422.632 151.903L422.555 151.177C423.323 151.177 424.006 151.166 424.604 151.143V149.624H423.178V146.414H426.934V147.131H424.023V148.907H426.994V149.624H425.44V151.109C426.379 151.052 427.102 150.986 427.608 150.913ZM430.362 148.027C430.362 147.646 430.447 147.313 430.618 147.029C430.789 146.744 431.025 146.525 431.327 146.371C431.628 146.218 431.972 146.141 432.359 146.141C432.877 146.141 433.313 146.275 433.665 146.542C434.018 146.804 434.237 147.168 434.323 147.635H435.765V145.842H436.627V150.153H435.765V148.36H434.331C434.257 148.838 434.041 149.217 433.682 149.496C433.324 149.774 432.883 149.914 432.359 149.914C431.972 149.914 431.628 149.837 431.327 149.683C431.025 149.53 430.789 149.311 430.618 149.026C430.447 148.742 430.362 148.409 430.362 148.027ZM431.267 148.198C431.267 148.511 431.366 148.759 431.566 148.941C431.765 149.123 432.029 149.214 432.359 149.214C432.684 149.214 432.945 149.123 433.145 148.941C433.344 148.759 433.443 148.511 433.443 148.198V147.865C433.443 147.547 433.344 147.296 433.145 147.114C432.945 146.932 432.684 146.841 432.359 146.841C432.029 146.841 431.765 146.932 431.566 147.114C431.366 147.296 431.267 147.547 431.267 147.865V148.198ZM437.361 153.089L436.807 153.67L435.62 152.492C435.58 152.452 435.538 152.432 435.492 152.432C435.469 152.432 435.444 152.44 435.415 152.458C435.279 152.645 435.102 152.839 434.886 153.038C434.675 153.243 434.408 153.476 434.084 153.738L432.803 152.449C432.763 152.409 432.724 152.389 432.684 152.389C432.655 152.389 432.621 152.403 432.581 152.432C432.32 152.802 431.898 153.229 431.318 153.712L430.763 153.14C431.298 152.731 431.679 152.347 431.907 151.988C432.135 151.63 432.248 151.237 432.248 150.81V150.503H433.068V150.836C433.068 151.302 432.977 151.715 432.795 152.073L432.829 152.099L432.974 151.988C433.042 151.937 433.113 151.911 433.187 151.911C433.273 151.911 433.344 151.94 433.401 151.997L434.143 152.714C434.485 152.423 434.727 152.136 434.869 151.851C435.011 151.561 435.082 151.22 435.082 150.827V150.503H435.893V150.87C435.893 151.342 435.802 151.758 435.62 152.116L435.654 152.133L435.799 152.022C435.873 151.965 435.95 151.937 436.03 151.937C436.109 151.937 436.178 151.962 436.235 152.014L437.361 153.089ZM438.647 148.932L438.186 148.292C438.88 148.042 439.424 147.805 439.816 147.584C440.209 147.356 440.488 147.128 440.653 146.901C440.818 146.667 440.9 146.408 440.9 146.124V145.919H441.762V146.167C441.762 146.673 441.606 147.103 441.293 147.456L441.361 147.473L441.643 147.276C441.757 147.197 441.868 147.157 441.976 147.157C442.038 147.157 442.115 147.177 442.206 147.217L444.366 148.266L443.896 148.915L441.532 147.712C441.441 147.666 441.353 147.643 441.267 147.643C441.182 147.643 441.097 147.669 441.011 147.72C440.772 147.919 440.462 148.116 440.081 148.309C439.705 148.497 439.227 148.705 438.647 148.932ZM444.776 149.41V150.136H437.776V149.41H444.776ZM442.923 150.631H443.76V153.601H439.338C439.156 153.601 439.017 153.553 438.92 153.456C438.829 153.359 438.783 153.22 438.783 153.038V150.631H439.62V151.408H442.923V150.631ZM442.923 152.108H439.62V152.893H442.923V152.108ZM451.823 145.842V153.32H450.952V145.842H451.823ZM450.03 150.315L450.133 151.023C449.182 151.211 448.033 151.305 446.684 151.305H445.814V146.44H446.676V150.571C447.973 150.571 449.091 150.486 450.03 150.315ZM460.219 149.41H459.024V153.328H458.161V145.851H459.024V148.685H460.219V149.41ZM457.402 150.452L457.504 151.143C456.622 151.319 455.507 151.408 454.158 151.408H453.305V146.448H456.787V147.174H454.167V150.691C455.475 150.691 456.554 150.611 457.402 150.452ZM461.359 150.733L461.06 148.181V146.482H462.067V148.181L461.786 150.733H461.359ZM461.572 152.543C461.356 152.543 461.197 152.492 461.094 152.389C460.998 152.281 460.949 152.145 460.949 151.979V151.834C460.949 151.669 460.998 151.536 461.094 151.433C461.197 151.325 461.356 151.271 461.572 151.271C461.789 151.271 461.945 151.325 462.042 151.433C462.144 151.536 462.195 151.669 462.195 151.834V151.979C462.195 152.145 462.144 152.281 462.042 152.389C461.945 152.492 461.789 152.543 461.572 152.543Z" fill="#868686"/>
<path d="M257.128 25.1477C257.258 25.2779 257.332 25.4545 257.332 25.6386C257.332 25.8227 257.258 25.9993 257.128 26.1295C256.998 26.2596 256.822 26.3328 256.637 26.3328C256.453 26.3328 256.277 26.2596 256.147 26.1295L252.48 22.4618L248.812 26.1283C248.682 26.2585 248.506 26.3316 248.321 26.3316C248.137 26.3316 247.961 26.2585 247.831 26.1283C247.7 25.9981 247.627 25.8215 247.627 25.6374C247.627 25.4533 247.7 25.2767 247.831 25.1466L251.498 21.48L247.832 17.8123C247.701 17.6821 247.628 17.5055 247.628 17.3214C247.628 17.1373 247.701 16.9607 247.832 16.8306C247.962 16.7004 248.138 16.6272 248.323 16.6272C248.507 16.6272 248.683 16.7004 248.813 16.8306L252.48 20.4983L256.148 16.83C256.278 16.6998 256.454 16.6266 256.639 16.6266C256.823 16.6266 256.999 16.6998 257.129 16.83C257.26 16.9602 257.333 17.1367 257.333 17.3208C257.333 17.505 257.26 17.6815 257.129 17.8117L253.462 21.48L257.128 25.1477Z" fill="#D0CFE0"/>
<defs>
<filter id="filter0_bd_1129_1676" x="-25.1545" y="68.8455" width="554.157" height="432.055" filterUnits="userSpaceOnUse" color-interpolation-filters="sRGB">
<feFlood flood-opacity="0" result="BackgroundImageFix"/>
<feGaussianBlur in="BackgroundImageFix" stdDeviation="17.0773"/>
<feComposite in2="SourceAlpha" operator="in" result="effect1_backgroundBlur_1129_1676"/>
<feColorMatrix in="SourceAlpha" type="matrix" values="0 0 0 0 0 0 0 0 0 0 0 0 0 0 0 0 0 0 127 0" result="hardAlpha"/>
<feOffset dy="5.12318"/>
<feGaussianBlur stdDeviation="4.26932"/>
<feComposite in2="hardAlpha" operator="out"/>
<feColorMatrix type="matrix" values="0 0 0 0 0 0 0 0 0 0 0 0 0 0 0 0 0 0 0.04 0"/>
<feBlend mode="normal" in2="effect1_backgroundBlur_1129_1676" result="effect2_dropShadow_1129_1676"/>
<feBlend mode="normal" in="SourceGraphic" in2="effect2_dropShadow_1129_1676" result="shape"/>
</filter>
<filter id="filter1_b_1129_1676" x="-21.4761" y="107.532" width="550.192" height="372.818" filterUnits="userSpaceOnUse" color-interpolation-filters="sRGB">
<feFlood flood-opacity="0" result="BackgroundImageFix"/>
<feGaussianBlur in="BackgroundImageFix" stdDeviation="23.7767"/>
<feComposite in2="SourceAlpha" operator="in" result="effect1_backgroundBlur_1129_1676"/>
<feBlend mode="normal" in="SourceGraphic" in2="effect1_backgroundBlur_1129_1676" result="shape"/>
</filter>
<filter id="filter2_d_1129_1676" x="158.827" y="247.685" width="229.623" height="27.1814" filterUnits="userSpaceOnUse" color-interpolation-filters="sRGB">
<feFlood flood-opacity="0" result="BackgroundImageFix"/>
<feColorMatrix in="SourceAlpha" type="matrix" values="0 0 0 0 0 0 0 0 0 0 0 0 0 0 0 0 0 0 127 0" result="hardAlpha"/>
<feOffset dy="0.951067"/>
<feGaussianBlur stdDeviation="2.37767"/>
<feComposite in2="hardAlpha" operator="out"/>
<feColorMatrix type="matrix" values="0 0 0 0 0 0 0 0 0 0 0 0 0 0 0 0 0 0 0.25 0"/>
<feBlend mode="normal" in2="BackgroundImageFix" result="effect1_dropShadow_1129_1676"/>
<feBlend mode="normal" in="SourceGraphic" in2="effect1_dropShadow_1129_1676" result="shape"/>
</filter>
<filter id="filter3_d_1129_1676" x="118.426" y="248.883" width="37.5582" height="26.3064" filterUnits="userSpaceOnUse" color-interpolation-filters="sRGB">
<feFlood flood-opacity="0" result="BackgroundImageFix"/>
<feColorMatrix in="SourceAlpha" type="matrix" values="0 0 0 0 0 0 0 0 0 0 0 0 0 0 0 0 0 0 127 0" result="hardAlpha"/>
<feOffset dy="0.951067"/>
<feGaussianBlur stdDeviation="2.37767"/>
<feComposite in2="hardAlpha" operator="out"/>
<feColorMatrix type="matrix" values="0 0 0 0 0 0 0 0 0 0 0 0 0 0 0 0 0 0 0.25 0"/>
<feBlend mode="normal" in2="BackgroundImageFix" result="effect1_dropShadow_1129_1676"/>
<feBlend mode="normal" in="SourceGraphic" in2="effect1_dropShadow_1129_1676" result="shape"/>
</filter>
<filter id="filter4_b_1129_1676" x="211.535" y="282.529" width="279.614" height="123.639" filterUnits="userSpaceOnUse" color-interpolation-filters="sRGB">
<feFlood flood-opacity="0" result="BackgroundImageFix"/>
<feGaussianBlur in="BackgroundImageFix" stdDeviation="23.7767"/>
<feComposite in2="SourceAlpha" operator="in" result="effect1_backgroundBlur_1129_1676"/>
<feBlend mode="normal" in="SourceGraphic" in2="effect1_backgroundBlur_1129_1676" result="shape"/>
</filter>
<filter id="filter5_b_1129_1676" x="17.5177" y="282.529" width="279.614" height="123.639" filterUnits="userSpaceOnUse" color-interpolation-filters="sRGB">
<feFlood flood-opacity="0" result="BackgroundImageFix"/>
<feGaussianBlur in="BackgroundImageFix" stdDeviation="23.7767"/>
<feComposite in2="SourceAlpha" operator="in" result="effect1_backgroundBlur_1129_1676"/>
<feBlend mode="normal" in="SourceGraphic" in2="effect1_backgroundBlur_1129_1676" result="shape"/>
</filter>
<filter id="filter6_bd_1129_1676" x="210.289" y="-20.7106" width="384.681" height="247.005" filterUnits="userSpaceOnUse" color-interpolation-filters="sRGB">
<feFlood flood-opacity="0" result="BackgroundImageFix"/>
<feGaussianBlur in="BackgroundImageFix" stdDeviation="11.8553"/>
<feComposite in2="SourceAlpha" operator="in" result="effect1_backgroundBlur_1129_1676"/>
<feColorMatrix in="SourceAlpha" type="matrix" values="0 0 0 0 0 0 0 0 0 0 0 0 0 0 0 0 0 0 127 0" result="hardAlpha"/>
<feOffset dy="3.55659"/>
<feGaussianBlur stdDeviation="2.96382"/>
<feComposite in2="hardAlpha" operator="out"/>
<feColorMatrix type="matrix" values="0 0 0 0 0 0 0 0 0 0 0 0 0 0 0 0 0 0 0.04 0"/>
<feBlend mode="normal" in2="effect1_backgroundBlur_1129_1676" result="effect2_dropShadow_1129_1676"/>
<feBlend mode="normal" in="SourceGraphic" in2="effect2_dropShadow_1129_1676" result="shape"/>
</filter>
<clipPath id="clip0_1129_1676">
<rect width="42.6791" height="42.6791" fill="white" transform="translate(387.632 71.4635)"/>
</clipPath>
</defs>
</svg>
