<svg width="147" height="175" viewBox="0 0 147 175" fill="none" xmlns="http://www.w3.org/2000/svg">
<path d="M143.419 84.0917C146.077 85.692 147.126 87.9962 146.567 91.0043C146.023 94.0825 144.28 95.9616 141.337 96.6416L101.184 105.918L133.871 151.07C134.977 152.66 135.373 154.376 135.061 156.22C134.749 158.064 133.841 159.565 132.337 160.725L115.554 172.906C113.964 174.012 112.247 174.409 110.404 174.096C108.56 173.784 107.059 172.876 105.899 171.373L74.8463 128.501L49.6287 168.873C48.6049 170.512 47.1821 171.541 45.3602 171.962C44.5193 172.157 43.6379 172.176 42.7161 172.02C39.6379 171.476 37.7588 169.733 37.0789 166.79L0.554239 8.70339C-0.125741 5.7603 0.798128 3.36932 3.32585 1.53047C4.08578 0.985823 4.88619 0.616359 5.72707 0.422079C7.61906 -0.0150503 9.34952 0.286375 10.9185 1.32635L143.419 84.0917Z" fill="#202020"/>
</svg>
