<svg width="32" height="32" viewBox="0 0 32 32" fill="none" xmlns="http://www.w3.org/2000/svg">
<path fill-rule="evenodd" clip-rule="evenodd" d="M13.2538 16.8613L10.2565 15.8627C7.11914 14.8173 5.5498 14.2947 5.5498 13.3333C5.5498 12.3733 7.11914 11.8493 10.2565 10.804L21.6071 7.02C23.8151 6.284 24.9191 5.916 25.5018 6.49866C26.0845 7.08133 25.7165 8.18533 24.9818 10.392L21.1965 21.744C20.1511 24.8813 19.6285 26.4507 18.6671 26.4507C17.7071 26.4507 17.1831 24.8813 16.1378 21.744L15.1378 18.748L20.9431 12.9427C21.186 12.6912 21.3204 12.3544 21.3174 12.0048C21.3143 11.6552 21.1741 11.3208 20.9269 11.0736C20.6797 10.8264 20.3453 10.6861 19.9957 10.6831C19.6461 10.6801 19.3093 10.8145 19.0578 11.0573L13.2538 16.8613Z" fill="white"/>
</svg>
