<svg width="80" height="80" viewBox="0 0 80 80" fill="none" xmlns="http://www.w3.org/2000/svg">
<g clip-path="url(#clip0_767_321)">
<path d="M65.032 69.1422L65.0321 69.1421C65.0659 69.1171 65.0996 69.0919 65.1333 69.0667C66.7038 67.8888 68.0895 66.4822 69.244 64.8931C71.269 62.1059 72.1591 58.8599 72.5847 54.9323C73 51.0983 73 46.2774 73 40.1803V40.1509V39.8488V39.8195C73 33.7223 73 28.9017 72.5847 25.0677C72.1591 21.1401 71.269 17.8941 69.244 15.1069C68.031 13.4373 66.5627 11.969 64.8931 10.756C62.1059 8.73099 58.8599 7.84087 54.9323 7.41534C51.0983 6.99995 46.2776 6.99997 40.1804 7L40.1508 7H39.8492L39.8196 7C33.7224 6.99997 28.9017 6.99995 25.0677 7.41534C21.1401 7.84087 17.8941 8.73099 15.1069 10.756C13.4373 11.969 11.969 13.4373 10.756 15.1069C8.73099 17.8941 7.84087 21.1401 7.41534 25.0677C6.99995 28.9017 6.99997 33.7224 7 39.8196L7 39.8492V40.1508L7 40.1804C6.99997 46.2776 6.99995 51.0983 7.41534 54.9323C7.84087 58.8599 8.73099 62.1059 10.756 64.8931C11.9138 66.4867 13.3042 67.8969 14.8802 69.0768C14.9553 69.133 15.0309 69.1888 15.1069 69.244C17.8941 71.269 21.1401 72.1591 25.0677 72.5847C28.9017 73 33.7226 73 39.8197 73H39.8491H40.1512H40.1805C46.2777 73 51.0983 73 54.9323 72.5847C58.8599 72.1591 62.1059 71.269 64.8931 69.244L64.8935 69.2437L64.9229 69.2223L64.9233 69.222C64.9483 69.2038 64.9733 69.1855 64.9982 69.1671C65.0095 69.1588 65.0208 69.1505 65.032 69.1422Z" fill="#D0CFE0" stroke="url(#paint0_linear_767_321)" stroke-linecap="round"/>
<g filter="url(#filter0_d_767_321)">
<path fill-rule="evenodd" clip-rule="evenodd" d="M63 63.6898C61.6475 57.7591 56.3407 53.3334 50.0002 53.3334H30.0002C23.6598 53.3334 18.353 57.7591 17.0005 63.6898C17.374 64.0385 17.7666 64.3671 18.1767 64.6741C18.2308 64.7146 18.2852 64.7547 18.3399 64.7945C20.0333 66.0248 22.2007 66.7419 25.6604 67.1167C29.1669 67.4966 33.695 67.5001 40.0002 67.5001C46.3055 67.5001 50.8336 67.4966 54.3401 67.1167C57.7998 66.7419 59.9672 66.0248 61.6605 64.7945C61.7185 64.7523 61.7762 64.7098 61.8336 64.6667C62.2401 64.3619 62.6294 64.0357 63 63.6898ZM40.0002 14.1667C31.2557 14.1667 24.1669 21.2556 24.1669 30.0001C24.1669 38.7446 31.2557 45.8334 40.0002 45.8334C48.7447 45.8334 55.8336 38.7446 55.8336 30.0001C55.8336 21.2556 48.7447 14.1667 40.0002 14.1667Z" fill="url(#paint1_linear_767_321)"/>
</g>
</g>
<defs>
<filter id="filter0_d_767_321" x="14.0005" y="11.1667" width="61.9995" height="69.3333" filterUnits="userSpaceOnUse" color-interpolation-filters="sRGB">
<feFlood flood-opacity="0" result="BackgroundImageFix"/>
<feColorMatrix in="SourceAlpha" type="matrix" values="0 0 0 0 0 0 0 0 0 0 0 0 0 0 0 0 0 0 127 0" result="hardAlpha"/>
<feOffset dx="5" dy="5"/>
<feGaussianBlur stdDeviation="4"/>
<feColorMatrix type="matrix" values="0 0 0 0 0.695589 0 0 0 0 0.676012 0 0 0 0 0.952881 0 0 0 0.5 0"/>
<feBlend mode="normal" in2="BackgroundImageFix" result="effect1_dropShadow_767_321"/>
<feBlend mode="normal" in="SourceGraphic" in2="effect1_dropShadow_767_321" result="shape"/>
</filter>
<linearGradient id="paint0_linear_767_321" x1="7.5" y1="7.5" x2="72.5329" y2="72.467" gradientUnits="userSpaceOnUse">
<stop stop-color="white" stop-opacity="0.25"/>
<stop offset="1" stop-color="white" stop-opacity="0"/>
</linearGradient>
<linearGradient id="paint1_linear_767_321" x1="40.3876" y1="78.8624" x2="112.985" y2="17.4844" gradientUnits="userSpaceOnUse">
<stop stop-color="white"/>
<stop offset="1" stop-color="white" stop-opacity="0.2"/>
</linearGradient>
<clipPath id="clip0_767_321">
<rect width="80" height="80" fill="white"/>
</clipPath>
</defs>
</svg>
