<svg width="36" height="36" viewBox="0 0 36 36" fill="none" xmlns="http://www.w3.org/2000/svg">
<path d="M29.1357 26.7493C29.4528 27.0663 29.6309 27.4963 29.6309 27.9446C29.6309 28.393 29.4528 28.8229 29.1357 29.14C28.8187 29.457 28.3888 29.6351 27.9404 29.6351C27.4921 29.6351 27.0621 29.457 26.7451 29.14L17.8168 20.2089L8.88574 29.1371C8.56872 29.4542 8.13876 29.6323 7.69043 29.6323C7.2421 29.6323 6.81213 29.4542 6.49511 29.1371C6.1781 28.8201 6 28.3902 6 27.9418C6 27.4935 6.1781 27.0635 6.49511 26.7465L15.4262 17.8182L6.49793 8.88715C6.18091 8.57013 6.00281 8.14016 6.00281 7.69183C6.00281 7.2435 6.18091 6.81354 6.49793 6.49652C6.81494 6.1795 7.24491 6.00141 7.69324 6.00141C8.14157 6.00141 8.57154 6.1795 8.88855 6.49652L17.8168 15.4276L26.7479 6.49511C27.0649 6.1781 27.4949 6 27.9432 6C28.3916 6 28.8215 6.1781 29.1386 6.49511C29.4556 6.81213 29.6337 7.2421 29.6337 7.69043C29.6337 8.13876 29.4556 8.56872 29.1386 8.88574L20.2075 17.8182L29.1357 26.7493Z" fill="#D0CFE0"/>
</svg>
